<svg xmlns="http://www.w3.org/2000/svg" xmlns:xlink="http://www.w3.org/1999/xlink" version="1.1" x="0" y="0" viewBox="0 0 153.4 193.1" xml:space="preserve" enable-background="new 0 0 153.4 193.1"><style type="text/css">
	.st0{display:none;}
	.st1{display:inline;}
	.st2{fill:#231F20;}
	.st3{fill:#86888B;}
	.st4{fill:#9A9C9F;}
	.st5{fill:#006FBA;}
	.st6{fill:url(#);}
	.st7{opacity:0.9;}
	.st8{fill:#FFFFFF;}
	.st9{fill:none;stroke:#FFFFFF;stroke-width:2;stroke-miterlimit:10;}
	.st10{fill:none;stroke:#FFFFFF;stroke-miterlimit:10;}
	.st11{fill:#CCD5DB;}
	.st12{fill:none;stroke:#CCD5DB;stroke-width:2;stroke-miterlimit:10;}
	.st13{fill:none;stroke:#CCD5DB;stroke-miterlimit:10;}
	.st14{clip-path:url(#SVGID_18_);fill:#FFFFFF;}
	.st15{fill:#595A5A;}
	.st16{fill:#E3E3E3;}
	.st17{fill:none;stroke:#868687;stroke-miterlimit:10;}
	.st18{fill:#868687;}
	.st19{fill:none;stroke:#868687;stroke-width:2;stroke-miterlimit:10;}
	.st20{opacity:0.95;}
	.st21{clip-path:url(#SVGID_24_);fill:#FFFFFF;}
	.st22{clip-path:url(#SVGID_26_);fill:#FFFFFF;}
	.st23{clip-path:url(#SVGID_28_);fill:#FFFFFF;}
</style><g id="neat" class="st0"/><g id="Layer_7" class="st0"/><g id="neat_copy" class="st0"/><g id="neat_copy_2" class="st0"/><g id="Logo" class="st0"/><g id="Layer_3"><defs><rect id="SVGID_17_" x="0" y="0" width="153.4" height="193.1"/></defs><clipPath id="SVGID_2_"><use xlink:href="#SVGID_17_" overflow="visible"/></clipPath><path d="M10.1 56.4h4.6c0.5 0 1-0.1 1.5-0.3 0.5-0.2 0.9-0.5 1.2-0.8 0.4-0.4 0.6-0.8 0.8-1.2 0.2-0.5 0.3-0.9 0.3-1.4 0-0.6-0.1-1.2-0.3-1.7 -0.2-0.5-0.5-0.9-0.8-1.2 -0.4-0.4-0.8-0.6-1.2-0.8 -0.5-0.2-1-0.3-1.5-0.3H8.9v20.7H7.6v-22h7.1c0.7 0 1.4 0.1 2 0.4 0.6 0.3 1.2 0.6 1.6 1.1 0.5 0.5 0.8 1 1.1 1.6 0.3 0.6 0.4 1.4 0.4 2.2 0 0.6-0.1 1.2-0.4 1.9 -0.3 0.6-0.6 1.2-1.1 1.6 -0.5 0.5-1 0.8-1.6 1.1 -0.6 0.3-1.3 0.4-2 0.4h-3L20 69.2h-1.5l-8.4-11.6V56.4z" style="clip-path:url(#SVGID_2_);fill:#FFF"/><path d="M20.8 69.6h-2.5L9.7 57.8V56h4.9c0.5 0 0.9-0.1 1.4-0.3 0.4-0.2 0.8-0.4 1.1-0.8 0.3-0.3 0.6-0.7 0.8-1.1 0.2-0.4 0.3-0.8 0.3-1.2 0-0.6-0.1-1.1-0.3-1.5 -0.2-0.4-0.4-0.8-0.8-1.1 -0.3-0.3-0.7-0.6-1.1-0.8 -0.4-0.2-0.9-0.3-1.4-0.3H9.3v20.7h-2V46.9h7.5c0.8 0 1.5 0.1 2.2 0.4 0.7 0.3 1.3 0.7 1.8 1.2 0.5 0.5 0.9 1.1 1.2 1.8 0.3 0.7 0.4 1.5 0.4 2.3 0 0.7-0.2 1.3-0.4 2 -0.3 0.7-0.7 1.3-1.2 1.8 -0.5 0.5-1.1 0.9-1.8 1.2 -0.7 0.3-1.4 0.4-2.2 0.4h-2.2L20.8 69.6zM18.7 68.8h0.6l-8.4-11.6h3.8c0.7 0 1.3-0.1 1.8-0.4 0.6-0.2 1.1-0.6 1.5-1 0.4-0.4 0.8-0.9 1-1.5 0.2-0.6 0.4-1.1 0.4-1.7 0-0.8-0.1-1.4-0.4-2 -0.3-0.6-0.6-1.1-1-1.5 -0.4-0.4-0.9-0.8-1.5-1 -0.6-0.2-1.2-0.4-1.8-0.4H8v21.2h0.5V48.1h6.2c0.6 0 1.2 0.1 1.7 0.3 0.5 0.2 1 0.5 1.4 0.9 0.4 0.4 0.7 0.8 0.9 1.4 0.2 0.5 0.3 1.1 0.3 1.8 0 0.5-0.1 1-0.3 1.5 -0.2 0.5-0.5 1-0.9 1.4 -0.4 0.4-0.8 0.7-1.4 0.9 -0.5 0.2-1.1 0.3-1.7 0.3h-4.2v0.7L18.7 68.8z" style="clip-path:url(#SVGID_2_);fill:#FFF"/><polygon points="23.2 47.3 33.8 47.3 33.8 48.5 24.4 48.5 24.4 56.4 30.7 56.4 30.7 57.6 24.4 57.6 24.4 68 33.8 68 33.8 69.2 23.2 69.2 " style="clip-path:url(#SVGID_2_);fill:#FFF"/><path d="M34.2 69.6H22.8V46.9h11.5v2h-9.4V56h6.3v2h-6.3v9.6h9.4V69.6zM23.6 68.8h9.9v-0.5H24V57.2h6.3v-0.5H24v-8.6h9.4v-0.5h-9.9V68.8z" style="clip-path:url(#SVGID_2_);fill:#FFF"/><polygon points="41.2 69.2 35.9 47.3 37.1 47.3 42.2 67.9 47.2 47.3 48.5 47.3 43.1 69.2 " style="clip-path:url(#SVGID_2_);fill:#FFF"/><path d="M43.4 69.6h-2.5l-5.6-22.7h2.1l4.7 19.3 4.7-19.3H49L43.4 69.6zM42.3 68.8h0.5L48 47.7h-0.4L42.3 68.8zM41.5 68.8H42l-5.2-21.2h-0.4L41.5 68.8z" style="clip-path:url(#SVGID_2_);fill:#FFF"/><path d="M50.4 53.7c0-0.9 0.2-1.8 0.5-2.6 0.3-0.8 0.8-1.5 1.4-2.1 0.6-0.6 1.3-1 2.1-1.4 0.8-0.3 1.6-0.5 2.5-0.5 0.9 0 1.7 0.2 2.5 0.5 0.8 0.3 1.5 0.8 2.1 1.4 0.6 0.6 1 1.3 1.4 2.1 0.3 0.8 0.5 1.7 0.5 2.6v9.1c0 0.9-0.2 1.8-0.5 2.6 -0.3 0.8-0.8 1.5-1.4 2.1 -0.6 0.6-1.3 1-2.1 1.4 -0.8 0.3-1.6 0.5-2.5 0.5 -0.9 0-1.7-0.2-2.5-0.5 -0.8-0.3-1.5-0.8-2.1-1.4 -0.6-0.6-1-1.3-1.4-2.1 -0.3-0.8-0.5-1.7-0.5-2.6V53.7zM62 53.7c0-0.8-0.1-1.5-0.4-2.1 -0.3-0.7-0.6-1.2-1.1-1.7 -0.5-0.5-1-0.8-1.6-1.1 -0.6-0.3-1.3-0.4-2-0.4 -0.7 0-1.4 0.1-2 0.4 -0.6 0.3-1.2 0.6-1.6 1.1 -0.5 0.5-0.8 1-1.1 1.7 -0.3 0.7-0.4 1.4-0.4 2.1v9.1c0 0.8 0.1 1.5 0.4 2.1 0.3 0.7 0.6 1.2 1.1 1.7 0.5 0.5 1 0.8 1.6 1.1 0.6 0.3 1.3 0.4 2 0.4 0.7 0 1.4-0.1 2-0.4 0.6-0.3 1.2-0.6 1.6-1.1 0.5-0.5 0.8-1 1.1-1.7 0.3-0.7 0.4-1.4 0.4-2.1V53.7z" style="clip-path:url(#SVGID_2_);fill:#FFF"/><polygon points="67.5 47.3 68.7 47.3 68.7 68 78.1 68 78.1 69.2 67.5 69.2 " style="clip-path:url(#SVGID_2_);fill:#FFF"/><path d="M92.4 47.3h1.3v15.5c0 0.9-0.2 1.8-0.5 2.6 -0.3 0.8-0.8 1.5-1.4 2.1 -0.6 0.6-1.3 1-2.1 1.4 -0.8 0.3-1.6 0.5-2.5 0.5 -0.9 0-1.7-0.2-2.5-0.5 -0.8-0.3-1.5-0.8-2.1-1.4 -0.6-0.6-1-1.3-1.4-2.1 -0.3-0.8-0.5-1.7-0.5-2.6V47.3H82v15.5c0 0.8 0.1 1.5 0.4 2.1 0.3 0.7 0.6 1.2 1.1 1.7 0.5 0.5 1 0.8 1.6 1.1 0.6 0.3 1.3 0.4 2 0.4 0.7 0 1.4-0.1 2-0.4 0.6-0.3 1.2-0.6 1.6-1.1 0.5-0.5 0.8-1 1.1-1.7 0.3-0.7 0.4-1.4 0.4-2.1V47.3z" style="clip-path:url(#SVGID_2_);fill:#FFF"/><polygon points="96.3 47.3 109.2 47.3 109.2 48.5 103.4 48.5 103.4 69.2 102.1 69.2 102.1 48.5 96.3 48.5 " style="clip-path:url(#SVGID_2_);fill:#FFF"/><rect x="112" y="47.3" width="1.3" height="22" style="clip-path:url(#SVGID_2_);fill:#FFF"/><path d="M117.5 53.7c0-0.9 0.2-1.8 0.5-2.6 0.3-0.8 0.8-1.5 1.4-2.1 0.6-0.6 1.3-1 2.1-1.4 0.8-0.3 1.6-0.5 2.5-0.5 0.9 0 1.7 0.2 2.5 0.5 0.8 0.3 1.5 0.8 2.1 1.4 0.6 0.6 1 1.3 1.4 2.1 0.3 0.8 0.5 1.7 0.5 2.6v9.1c0 0.9-0.2 1.8-0.5 2.6 -0.3 0.8-0.8 1.5-1.4 2.1 -0.6 0.6-1.3 1-2.1 1.4 -0.8 0.3-1.6 0.5-2.5 0.5 -0.9 0-1.7-0.2-2.5-0.5 -0.8-0.3-1.5-0.8-2.1-1.4 -0.6-0.6-1-1.3-1.4-2.1 -0.3-0.8-0.5-1.7-0.5-2.6V53.7zM129.1 53.7c0-0.8-0.1-1.5-0.4-2.1 -0.3-0.7-0.6-1.2-1.1-1.7 -0.5-0.5-1-0.8-1.6-1.1 -0.6-0.3-1.3-0.4-2-0.4 -0.7 0-1.4 0.1-2 0.4 -0.6 0.3-1.2 0.6-1.6 1.1 -0.5 0.5-0.8 1-1.1 1.7 -0.3 0.7-0.4 1.4-0.4 2.1v9.1c0 0.8 0.1 1.5 0.4 2.1 0.3 0.7 0.6 1.2 1.1 1.7 0.5 0.5 1 0.8 1.6 1.1 0.6 0.3 1.3 0.4 2 0.4 0.7 0 1.4-0.1 2-0.4 0.6-0.3 1.2-0.6 1.6-1.1 0.5-0.5 0.8-1 1.1-1.7 0.3-0.7 0.4-1.4 0.4-2.1V53.7z" style="clip-path:url(#SVGID_2_);fill:#FFF"/><polygon points="135.8 49.4 135.8 69.2 134.6 69.2 134.6 47.3 136.3 47.3 145.2 67.1 145.2 47.3 146.5 47.3 146.5 69.2 144.8 69.2 " style="clip-path:url(#SVGID_2_);fill:#FFF"/><path d="M17.7 19.9h10.6v10.4c0 1.5-0.3 2.9-0.8 4.2 -0.5 1.3-1.3 2.4-2.2 3.4 -0.9 0.9-2.1 1.7-3.3 2.2 -1.3 0.5-2.6 0.8-4 0.8 -1.4 0-2.8-0.3-4-0.8 -1.3-0.5-2.4-1.3-3.3-2.2 -0.9-0.9-1.7-2.1-2.2-3.4 -0.5-1.3-0.8-2.7-0.8-4.2V15.6c0-1.5 0.3-2.9 0.8-4.2C8.9 10.1 9.6 9 10.6 8c0.9-0.9 2-1.7 3.3-2.2 1.3-0.5 2.6-0.8 4-0.8 1.7 0 3.3 0.4 4.7 1.2 1.4 0.8 2.7 1.9 3.7 3.2l-1.7 1.1c-1.2-1.3-2.3-2.2-3.4-2.7C20.2 7.3 19.1 7 17.9 7c-1.1 0-2.2 0.2-3.2 0.6 -1 0.4-1.9 1-2.7 1.8 -0.8 0.8-1.4 1.7-1.8 2.7 -0.4 1.1-0.7 2.2-0.7 3.5v14.7c0 1.2 0.2 2.4 0.7 3.5 0.4 1.1 1 2 1.8 2.7 0.8 0.8 1.6 1.4 2.7 1.8 1 0.4 2.1 0.6 3.2 0.6 1.1 0 2.2-0.2 3.2-0.6 1-0.4 1.9-1 2.7-1.8 0.8-0.8 1.4-1.7 1.8-2.7 0.4-1.1 0.7-2.2 0.7-3.5V22h-8.6V19.9z" style="clip-path:url(#SVGID_2_);fill:#FFF"/><path d="M17.9 41.3c-1.5 0-2.9-0.3-4.2-0.8 -1.3-0.6-2.5-1.3-3.4-2.3 -1-1-1.8-2.1-2.3-3.5 -0.6-1.3-0.8-2.8-0.8-4.4V15.6c0-1.6 0.3-3 0.8-4.4 0.6-1.3 1.3-2.5 2.3-3.5 1-1 2.1-1.8 3.4-2.3 1.3-0.6 2.7-0.8 4.2-0.8 1.8 0 3.4 0.4 4.9 1.2 1.5 0.8 2.8 1.9 3.8 3.3L27 9.5 24.6 11l-0.2-0.2c-1.1-1.2-2.2-2.1-3.3-2.6 -2.1-1-4.4-0.9-6.3-0.1 -1 0.4-1.8 1-2.5 1.7 -0.7 0.7-1.3 1.6-1.7 2.6 -0.4 1-0.6 2.1-0.6 3.3v14.7c0 1.2 0.2 2.3 0.6 3.3 0.4 1 1 1.9 1.7 2.6 0.7 0.7 1.6 1.3 2.5 1.7 1.9 0.8 4.3 0.8 6.2 0 1-0.4 1.8-1 2.5-1.7 0.7-0.7 1.3-1.6 1.7-2.6 0.4-1 0.6-2.1 0.6-3.3v-8h-8.6v-2.8h11.4v10.8c0 1.6-0.3 3-0.8 4.4 -0.6 1.3-1.3 2.5-2.3 3.5 -1 1-2.1 1.8-3.4 2.3C20.8 41.1 19.4 41.3 17.9 41.3M17.9 5.4c-1.4 0-2.7 0.3-3.9 0.8 -1.2 0.5-2.3 1.2-3.2 2.1 -0.9 0.9-1.6 2-2.1 3.2 -0.5 1.2-0.8 2.6-0.8 4.1v14.7c0 1.5 0.3 2.8 0.8 4.1 0.5 1.2 1.2 2.3 2.1 3.2 0.9 0.9 2 1.6 3.2 2.1 2.4 1 5.3 1 7.7 0 1.2-0.5 2.3-1.2 3.2-2.1 0.9-0.9 1.6-2 2.1-3.2 0.5-1.2 0.8-2.6 0.8-4.1v-10h-9.8v1.2h8.6v8.7c0 1.3-0.2 2.5-0.7 3.6 -0.5 1.1-1.1 2.1-1.9 2.9 -0.8 0.8-1.7 1.4-2.8 1.9 -2.1 0.9-4.7 0.9-6.8 0 -1.1-0.4-2-1.1-2.8-1.9C11 36 10.3 35 9.9 33.9c-0.5-1.1-0.7-2.3-0.7-3.6V15.6c0-1.3 0.2-2.5 0.7-3.6 0.5-1.1 1.1-2.1 1.9-2.9 0.8-0.8 1.7-1.4 2.8-1.9 2.1-0.9 4.6-0.9 6.9 0.1 1 0.5 2.2 1.3 3.3 2.5l1.1-0.7c-1-1.1-2.1-2.1-3.3-2.8C21.1 5.8 19.6 5.4 17.9 5.4" style="clip-path:url(#SVGID_2_);fill:#FFF"/><rect x="35.1" y="5.3" width="2" height="35.4" style="clip-path:url(#SVGID_2_);fill:#FFF"/><path d="M37.6 41.1h-2.8V4.9h2.8V41.1zM35.5 40.3h1.2V5.7h-1.2V40.3z" style="clip-path:url(#SVGID_2_);fill:#FFF"/><path d="M54.1 19.9h10.6v10.4c0 1.5-0.3 2.9-0.8 4.2 -0.5 1.3-1.3 2.4-2.2 3.4 -0.9 0.9-2.1 1.7-3.3 2.2 -1.3 0.5-2.6 0.8-4 0.8 -1.4 0-2.8-0.3-4-0.8 -1.3-0.5-2.4-1.3-3.3-2.2 -0.9-0.9-1.7-2.1-2.2-3.4 -0.5-1.3-0.8-2.7-0.8-4.2V15.6c0-1.5 0.3-2.9 0.8-4.2C45.3 10.1 46.1 9 47 8c0.9-0.9 2-1.7 3.3-2.2C51.6 5.3 53 5 54.4 5c1.7 0 3.3 0.4 4.7 1.2 1.4 0.8 2.7 1.9 3.7 3.2l-1.7 1.1c-1.2-1.3-2.3-2.2-3.4-2.7C56.6 7.3 55.5 7 54.4 7c-1.1 0-2.2 0.2-3.2 0.6 -1 0.4-1.9 1-2.7 1.8 -0.8 0.8-1.4 1.7-1.8 2.7 -0.4 1.1-0.7 2.2-0.7 3.5v14.7c0 1.2 0.2 2.4 0.7 3.5 0.4 1.1 1 2 1.8 2.7 0.8 0.8 1.6 1.4 2.7 1.8 1 0.4 2.1 0.6 3.2 0.6 1.1 0 2.2-0.2 3.2-0.6 1-0.4 1.9-1 2.7-1.8 0.8-0.8 1.4-1.7 1.8-2.7 0.4-1.1 0.7-2.2 0.7-3.5V22h-8.6V19.9z" style="clip-path:url(#SVGID_2_);fill:#FFF"/><path d="M54.4 41.3c-1.5 0-2.9-0.3-4.2-0.8 -1.3-0.6-2.5-1.3-3.4-2.3 -1-1-1.8-2.2-2.3-3.5 -0.6-1.3-0.8-2.8-0.8-4.4V15.6c0-1.6 0.3-3 0.8-4.4 0.6-1.3 1.3-2.5 2.3-3.5 1-1 2.1-1.8 3.4-2.3 1.3-0.6 2.7-0.8 4.2-0.8 1.8 0 3.4 0.4 4.9 1.2 1.5 0.8 2.8 1.9 3.8 3.3l0.3 0.3L61 11l-0.2-0.2c-1.1-1.2-2.2-2.1-3.3-2.6 -2.1-1-4.4-0.9-6.3-0.1 -1 0.4-1.8 1-2.5 1.7 -0.7 0.7-1.3 1.6-1.7 2.6 -0.4 1-0.6 2.1-0.6 3.3v14.7c0 1.2 0.2 2.3 0.6 3.3 0.4 1 1 1.9 1.7 2.6 0.7 0.7 1.6 1.3 2.5 1.7 1.9 0.8 4.3 0.8 6.2 0 1-0.4 1.8-1 2.5-1.7 0.7-0.7 1.3-1.6 1.7-2.6 0.4-1 0.6-2.1 0.6-3.3v-8h-8.6v-2.8h11.4v10.8c0 1.6-0.3 3-0.8 4.4C63.7 36 63 37.2 62 38.2c-1 1-2.1 1.8-3.4 2.3C57.2 41.1 55.8 41.3 54.4 41.3M54.4 5.4c-1.4 0-2.7 0.3-3.9 0.8 -1.2 0.5-2.3 1.2-3.2 2.1 -0.9 0.9-1.6 2-2.1 3.2 -0.5 1.2-0.8 2.6-0.8 4.1v14.7c0 1.5 0.3 2.8 0.8 4.1 0.5 1.2 1.2 2.3 2.1 3.2 0.9 0.9 2 1.6 3.2 2.1 2.4 1 5.3 1 7.7 0 1.2-0.5 2.3-1.2 3.2-2.1 0.9-0.9 1.6-2 2.1-3.2 0.5-1.2 0.8-2.6 0.8-4.1v-10h-9.8v1.2h8.6v8.7c0 1.3-0.2 2.5-0.7 3.6C62 35 61.3 36 60.5 36.8c-0.8 0.8-1.7 1.4-2.8 1.9 -2.1 0.9-4.7 0.9-6.8 0 -1.1-0.4-2-1.1-2.8-1.9 -0.8-0.8-1.4-1.8-1.9-2.9 -0.5-1.1-0.7-2.3-0.7-3.6V15.6c0-1.3 0.2-2.5 0.7-3.6 0.5-1.1 1.1-2.1 1.9-2.9C49 8.4 49.9 7.7 51 7.3c2.1-0.9 4.6-0.9 6.9 0.1 1.1 0.5 2.2 1.3 3.3 2.5l1.1-0.7c-1-1.1-2.1-2.1-3.3-2.8C57.5 5.8 56 5.4 54.4 5.4" style="clip-path:url(#SVGID_2_);fill:#FFF"/><path d="M88.6 40.7h-2l-3.2-13.2h-9.8l-3.2 13.2h-2L77 5.3h3L88.6 40.7zM74.1 25.5h8.8L78.5 7.4 74.1 25.5z" style="clip-path:url(#SVGID_2_);fill:#FFF"/><path d="M106.5 20.9c2.8 0.8 4.8 2.1 6 3.7 1.1 1.7 1.7 3.5 1.7 5.5 0 1.6-0.3 3-0.8 4.3 -0.5 1.3-1.3 2.4-2.2 3.3 -0.9 0.9-2 1.7-3.3 2.2 -1.3 0.5-2.6 0.8-4 0.8H93.5V5.3h10.4c1.1 0 2.2 0.2 3.2 0.7 1 0.4 1.9 1 2.7 1.8 0.8 0.8 1.4 1.6 1.8 2.7 0.4 1 0.7 2.2 0.7 3.5 0 1.4-0.4 2.7-1.1 4C110.3 19.1 108.8 20.1 106.5 20.9M112.2 30.1c0-1-0.2-2-0.7-3 -0.4-1-1-1.9-1.8-2.7 -0.8-0.8-1.6-1.4-2.7-1.8 -1-0.4-2.1-0.7-3.2-0.7h-6.3v-2h6.3c0.9 0 1.7-0.2 2.5-0.5 0.8-0.3 1.4-0.8 2-1.4 0.6-0.6 1-1.2 1.4-2 0.3-0.8 0.5-1.5 0.5-2.2 0-1-0.2-2-0.5-2.7 -0.3-0.8-0.8-1.4-1.4-2 -0.6-0.6-1.2-1-2-1.4 -0.8-0.3-1.6-0.5-2.5-0.5h-8.4v31.4h8.4c1.1 0 2.2-0.2 3.2-0.7 1-0.4 1.9-1 2.7-1.8 0.8-0.8 1.4-1.6 1.8-2.7C112 32.5 112.2 31.4 112.2 30.1" style="clip-path:url(#SVGID_2_);fill:#FFF"/><rect x="119.8" y="5.3" width="2" height="35.4" style="clip-path:url(#SVGID_2_);fill:#FFF"/><polygon points="125.4 5.3 146.1 5.3 146.1 7.3 136.7 7.3 136.7 40.7 134.7 40.7 134.7 7.3 125.4 7.3 " style="clip-path:url(#SVGID_2_);fill:#FFF"/><path d="M11.7 185.1h-0.3l-0.5-2H9.4l-0.5 2H8.6l1.3-5.5h0.5L11.7 185.1zM9.5 182.7h1.4l-0.7-2.8L9.5 182.7z" style="clip-path:url(#SVGID_2_);fill:#FFF"/><path d="M15.5 181.9h1.6v1.6c0 0.2 0 0.5-0.1 0.7 -0.1 0.2-0.2 0.4-0.3 0.5 -0.1 0.1-0.3 0.3-0.5 0.3 -0.2 0.1-0.4 0.1-0.6 0.1 -0.2 0-0.4 0-0.6-0.1 -0.2-0.1-0.4-0.2-0.5-0.3 -0.1-0.1-0.3-0.3-0.3-0.5 -0.1-0.2-0.1-0.4-0.1-0.7v-2.3c0-0.2 0-0.5 0.1-0.7 0.1-0.2 0.2-0.4 0.3-0.5 0.1-0.1 0.3-0.3 0.5-0.3 0.2-0.1 0.4-0.1 0.6-0.1 0.3 0 0.5 0.1 0.7 0.2 0.2 0.1 0.4 0.3 0.6 0.5l-0.3 0.2c-0.2-0.2-0.4-0.3-0.5-0.4 -0.2-0.1-0.3-0.1-0.5-0.1 -0.2 0-0.3 0-0.5 0.1 -0.2 0.1-0.3 0.2-0.4 0.3 -0.1 0.1-0.2 0.3-0.3 0.4 -0.1 0.2-0.1 0.3-0.1 0.5v2.3c0 0.2 0 0.4 0.1 0.5 0.1 0.2 0.2 0.3 0.3 0.4 0.1 0.1 0.3 0.2 0.4 0.3 0.2 0.1 0.3 0.1 0.5 0.1 0.2 0 0.3 0 0.5-0.1 0.2-0.1 0.3-0.2 0.4-0.3 0.1-0.1 0.2-0.3 0.3-0.4 0.1-0.2 0.1-0.3 0.1-0.5v-1.3h-1.3V181.9z" style="clip-path:url(#SVGID_2_);fill:#FFF"/><path d="M18.2 180.3c0-0.1 0-0.1 0.1-0.1 0 0 0.1-0.1 0.1-0.1 0.1 0 0.1 0 0.1 0.1 0 0 0.1 0.1 0.1 0.1 0 0.1 0 0.1-0.1 0.1 0 0-0.1 0.1-0.1 0.1 -0.1 0-0.1 0-0.1-0.1C18.2 180.4 18.2 180.3 18.2 180.3M18.2 181.2h0.3v3.9h-0.3V181.2z" style="clip-path:url(#SVGID_2_);fill:#FFF"/><path d="M20.6 184.5c-0.2 0-0.3 0-0.5-0.1 -0.1-0.1-0.3-0.1-0.4-0.3 -0.1-0.1-0.2-0.2-0.2-0.4 -0.1-0.1-0.1-0.3-0.1-0.5v-0.9c0-0.2 0-0.3 0.1-0.5 0.1-0.1 0.1-0.3 0.2-0.4 0.1-0.1 0.2-0.2 0.4-0.2 0.1-0.1 0.3-0.1 0.5-0.1 0.2 0 0.4 0 0.5 0.1 0.2 0.1 0.3 0.2 0.4 0.3 0-0.1 0.1-0.2 0.2-0.3 0.1-0.1 0.2-0.1 0.4-0.1v0.3c-0.1 0-0.1 0-0.2 0.1 0 0-0.1 0.1-0.1 0.2 0 0.1 0 0.2 0 0.3 0 0.1 0 0.2 0 0.4v0.9c0 0.2 0 0.3-0.1 0.5 -0.1 0.1-0.1 0.3-0.3 0.4 -0.1 0.1-0.2 0.2-0.4 0.3C20.9 184.4 20.7 184.5 20.6 184.5M19.7 185.9c0 0.2 0.1 0.5 0.2 0.6 0.2 0.2 0.4 0.2 0.6 0.2 0.3 0 0.5-0.1 0.6-0.2 0.2-0.2 0.2-0.4 0.2-0.7 0-0.2-0.1-0.4-0.2-0.6 -0.2-0.2-0.4-0.2-0.6-0.2v-0.3c0.2 0 0.3 0 0.5 0.1 0.1 0.1 0.3 0.1 0.4 0.3 0.1 0.1 0.2 0.2 0.2 0.4 0.1 0.1 0.1 0.3 0.1 0.4 0 0.2 0 0.3-0.1 0.5 -0.1 0.1-0.1 0.3-0.2 0.4 -0.1 0.1-0.2 0.2-0.4 0.3 -0.1 0.1-0.3 0.1-0.5 0.1 -0.2 0-0.3 0-0.5-0.1 -0.1-0.1-0.3-0.1-0.4-0.3 -0.1-0.1-0.2-0.2-0.3-0.4 -0.1-0.1-0.1-0.3-0.1-0.5H19.7zM19.7 183.2c0 0.3 0.1 0.5 0.2 0.7 0.2 0.2 0.4 0.2 0.6 0.2 0.2 0 0.5-0.1 0.6-0.2 0.2-0.2 0.2-0.4 0.2-0.7v-0.9c0-0.3-0.1-0.5-0.2-0.7 -0.2-0.2-0.4-0.2-0.6-0.2 -0.3 0-0.5 0.1-0.6 0.2 -0.2 0.2-0.2 0.4-0.2 0.7V183.2z" style="clip-path:url(#SVGID_2_);fill:#FFF"/><path d="M24.3 183.3c-0.1-0.1-0.2-0.1-0.2-0.1 -0.1 0-0.2 0-0.3 0 -0.2 0-0.5 0.1-0.6 0.2 -0.2 0.1-0.2 0.3-0.2 0.6 0 0.3 0.1 0.5 0.2 0.7 0.2 0.2 0.4 0.2 0.6 0.2 0.3 0 0.5-0.1 0.6-0.2 0.2-0.2 0.2-0.4 0.2-0.7v-1.6c0-0.3-0.1-0.5-0.2-0.7 -0.2-0.2-0.4-0.2-0.6-0.2 -0.3 0-0.5 0.1-0.7 0.3l-0.2-0.1c0.1-0.2 0.2-0.3 0.4-0.4 0.2-0.1 0.4-0.1 0.6-0.1 0.2 0 0.3 0 0.5 0.1 0.1 0.1 0.3 0.1 0.4 0.2 0.1 0.1 0.2 0.2 0.2 0.4 0.1 0.1 0.1 0.3 0.1 0.5v1.6c0 0.1 0 0.2 0 0.4 0 0.1 0 0.2 0 0.3 0 0.1 0 0.1 0.1 0.2 0 0 0.1 0.1 0.2 0.1v0.3c-0.2 0-0.3 0-0.4-0.1 -0.1-0.1-0.1-0.2-0.2-0.3 -0.1 0.1-0.2 0.2-0.4 0.3 -0.2 0.1-0.3 0.1-0.5 0.1 -0.2 0-0.3 0-0.5-0.1 -0.1-0.1-0.3-0.1-0.4-0.2 -0.1-0.1-0.2-0.2-0.3-0.4 -0.1-0.1-0.1-0.3-0.1-0.5 0-0.2 0-0.3 0.1-0.4 0.1-0.1 0.1-0.2 0.3-0.3 0.1-0.1 0.2-0.2 0.4-0.2 0.1-0.1 0.3-0.1 0.5-0.1 0.2 0 0.4 0 0.5 0.1V183.3z" style="clip-path:url(#SVGID_2_);fill:#FFF"/><path d="M26.5 181.3c0.2-0.1 0.3-0.1 0.5-0.1 0.2 0 0.3 0 0.5 0.1 0.1 0.1 0.3 0.1 0.4 0.2 0.1 0.1 0.2 0.2 0.3 0.4 0.1 0.1 0.1 0.3 0.1 0.5v1.5c0 0.2 0 0.3-0.1 0.5 -0.1 0.1-0.1 0.3-0.2 0.4 -0.1 0.1-0.2 0.2-0.4 0.2 -0.1 0.1-0.3 0.1-0.5 0.1 -0.2 0-0.3 0-0.5-0.1 -0.1-0.1-0.3-0.1-0.4-0.2 -0.1-0.1-0.2-0.2-0.3-0.4 -0.1-0.1-0.1-0.3-0.1-0.5v-4.3h0.3v4.3c0 0.3 0.1 0.5 0.2 0.7 0.2 0.2 0.4 0.2 0.6 0.2 0.3 0 0.5-0.1 0.6-0.2 0.2-0.2 0.2-0.4 0.2-0.7v-1.5c0-0.3-0.1-0.5-0.2-0.7 -0.2-0.2-0.4-0.2-0.6-0.2 -0.1 0-0.2 0-0.3 0 -0.1 0-0.2 0.1-0.2 0.1V181.3z" style="clip-path:url(#SVGID_2_);fill:#FFF"/><path d="M29 180.3c0-0.1 0-0.1 0.1-0.1 0 0 0.1-0.1 0.1-0.1 0.1 0 0.1 0 0.1 0.1 0 0 0.1 0.1 0.1 0.1 0 0.1 0 0.1-0.1 0.1 0 0-0.1 0.1-0.1 0.1 -0.1 0-0.1 0-0.1-0.1C29 180.4 29 180.3 29 180.3M29.1 181.2h0.3v3.9h-0.3V181.2z" style="clip-path:url(#SVGID_2_);fill:#FFF"/><path d="M30.8 184.3c0.1 0.1 0.1 0.2 0.2 0.3 0.1 0.1 0.2 0.1 0.4 0.2 0.1 0 0.2 0 0.3 0v0.3c-0.1 0-0.3 0-0.4 0 -0.2 0-0.3-0.1-0.4-0.2 -0.1-0.1-0.2-0.2-0.3-0.4 -0.1-0.2-0.1-0.3-0.1-0.6v-2.4h-0.3v-0.3h0.3v-1.6h0.3v1.6h0.7v0.3h-0.7v2.4C30.7 184.1 30.8 184.2 30.8 184.3" style="clip-path:url(#SVGID_2_);fill:#FFF"/><path d="M34.6 181.9h1.1c0.1 0 0.3 0 0.4-0.1 0.1-0.1 0.2-0.1 0.3-0.2 0.1-0.1 0.2-0.2 0.2-0.3 0.1-0.1 0.1-0.2 0.1-0.3 0-0.2 0-0.3-0.1-0.4 -0.1-0.1-0.1-0.2-0.2-0.3 -0.1-0.1-0.2-0.2-0.3-0.2 -0.1-0.1-0.2-0.1-0.4-0.1h-1.4v5.2H34v-5.5h1.8c0.2 0 0.3 0 0.5 0.1 0.2 0.1 0.3 0.2 0.4 0.3 0.1 0.1 0.2 0.3 0.3 0.4 0.1 0.2 0.1 0.3 0.1 0.5 0 0.2 0 0.3-0.1 0.5 -0.1 0.2-0.2 0.3-0.3 0.4 -0.1 0.1-0.3 0.2-0.4 0.3 -0.2 0.1-0.3 0.1-0.5 0.1H35l2.1 2.9h-0.4l-2.1-2.9V181.9z" style="clip-path:url(#SVGID_2_);fill:#FFF"/><path d="M38.2 183.1h0.5c0.2 0 0.5-0.1 0.6-0.2 0.2-0.2 0.2-0.3 0.2-0.6 0-0.3-0.1-0.5-0.2-0.6 -0.2-0.1-0.4-0.2-0.6-0.2 -0.3 0-0.5 0.1-0.6 0.2 -0.2 0.1-0.2 0.4-0.2 0.6v1.6c0 0.3 0.1 0.5 0.2 0.7 0.2 0.2 0.4 0.2 0.6 0.2 0.3 0 0.5-0.1 0.7-0.3l0.2 0.2c-0.1 0.2-0.2 0.3-0.4 0.4 -0.2 0.1-0.4 0.1-0.5 0.1 -0.2 0-0.3 0-0.5-0.1 -0.1-0.1-0.3-0.1-0.4-0.2 -0.1-0.1-0.2-0.2-0.2-0.4 -0.1-0.1-0.1-0.3-0.1-0.5v-1.6c0-0.2 0-0.3 0.1-0.5 0.1-0.1 0.1-0.3 0.2-0.4 0.1-0.1 0.2-0.2 0.4-0.3 0.1-0.1 0.3-0.1 0.5-0.1 0.2 0 0.3 0 0.5 0.1 0.1 0.1 0.3 0.1 0.4 0.3 0.1 0.1 0.2 0.2 0.3 0.4 0.1 0.1 0.1 0.3 0.1 0.5 0 0.2 0 0.3-0.1 0.4 -0.1 0.1-0.1 0.2-0.3 0.3 -0.1 0.1-0.2 0.2-0.4 0.2 -0.1 0.1-0.3 0.1-0.5 0.1h-0.5V183.1z" style="clip-path:url(#SVGID_2_);fill:#FFF"/><polygon points="40.6 181.2 41.5 184.7 42.3 181.2 42.7 181.2 41.7 185.1 41.2 185.1 40.3 181.2 " style="clip-path:url(#SVGID_2_);fill:#FFF"/><path d="M44.2 185.1c-0.2 0-0.3 0-0.5-0.1 -0.1-0.1-0.3-0.1-0.4-0.2 -0.1-0.1-0.2-0.2-0.2-0.4 -0.1-0.1-0.1-0.3-0.1-0.5v-1.6c0-0.2 0-0.3 0.1-0.5 0.1-0.1 0.1-0.3 0.2-0.4 0.1-0.1 0.2-0.2 0.4-0.2 0.1-0.1 0.3-0.1 0.5-0.1 0.2 0 0.3 0 0.5 0.1 0.1 0.1 0.3 0.1 0.4 0.2 0.1 0.1 0.2 0.2 0.3 0.4 0.1 0.2 0.1 0.3 0.1 0.5v1.6c0 0.2 0 0.3-0.1 0.5 -0.1 0.1-0.1 0.3-0.3 0.4 -0.1 0.1-0.2 0.2-0.4 0.2C44.5 185.1 44.3 185.1 44.2 185.1M43.3 183.9c0 0.3 0.1 0.5 0.2 0.7 0.2 0.2 0.4 0.2 0.6 0.2 0.2 0 0.5-0.1 0.6-0.2 0.2-0.2 0.2-0.4 0.2-0.7v-1.6c0-0.3-0.1-0.5-0.2-0.7 -0.2-0.2-0.4-0.2-0.6-0.2 -0.3 0-0.5 0.1-0.6 0.2 -0.2 0.2-0.2 0.4-0.2 0.7V183.9z" style="clip-path:url(#SVGID_2_);fill:#FFF"/><path d="M46.2 179.6h0.3v4.3c0 0.1 0 0.3 0 0.4 0 0.1 0 0.2 0 0.3 0 0.1 0 0.1 0.1 0.2 0 0 0.1 0.1 0.2 0.1v0.3c-0.1 0-0.3 0-0.3-0.1 -0.1-0.1-0.1-0.1-0.2-0.2 0-0.1-0.1-0.2-0.1-0.4 0-0.1 0-0.3 0-0.5V179.6z" style="clip-path:url(#SVGID_2_);fill:#FFF"/><path d="M49.9 181.2v2.8c0 0.1 0 0.2 0 0.3 0 0.1 0 0.2 0 0.3 0 0.1 0.1 0.1 0.1 0.2 0 0 0.1 0.1 0.2 0.1v0.3c-0.2 0-0.3 0-0.4-0.1 -0.1-0.1-0.1-0.2-0.2-0.3 -0.1 0.1-0.2 0.3-0.4 0.3 -0.2 0.1-0.3 0.1-0.5 0.1 -0.2 0-0.3 0-0.5-0.1 -0.1-0.1-0.3-0.1-0.4-0.2 -0.1-0.1-0.2-0.2-0.2-0.4 -0.1-0.1-0.1-0.3-0.1-0.5v-2.7h0.3v2.7c0 0.3 0.1 0.5 0.2 0.7 0.2 0.2 0.4 0.2 0.6 0.2 0.2 0 0.4-0.1 0.6-0.2 0.2-0.2 0.2-0.4 0.3-0.6v-2.8H49.9z" style="clip-path:url(#SVGID_2_);fill:#FFF"/><path d="M51.3 184.3c0.1 0.1 0.1 0.2 0.2 0.3 0.1 0.1 0.2 0.1 0.4 0.2 0.1 0 0.2 0 0.3 0v0.3c-0.1 0-0.3 0-0.4 0 -0.2 0-0.3-0.1-0.4-0.2 -0.1-0.1-0.2-0.2-0.3-0.4 -0.1-0.2-0.1-0.3-0.1-0.6v-2.4h-0.3v-0.3h0.3v-1.6h0.3v1.6h0.7v0.3h-0.7v2.4C51.2 184.1 51.2 184.2 51.3 184.3" style="clip-path:url(#SVGID_2_);fill:#FFF"/><path d="M52.8 180.3c0-0.1 0-0.1 0.1-0.1 0 0 0.1-0.1 0.1-0.1 0.1 0 0.1 0 0.1 0.1 0 0 0.1 0.1 0.1 0.1 0 0.1 0 0.1-0.1 0.1 0 0-0.1 0.1-0.1 0.1 -0.1 0-0.1 0-0.1-0.1C52.9 180.4 52.8 180.3 52.8 180.3M52.9 181.2h0.3v3.9h-0.3V181.2z" style="clip-path:url(#SVGID_2_);fill:#FFF"/><path d="M55.2 185.1c-0.2 0-0.3 0-0.5-0.1 -0.1-0.1-0.3-0.1-0.4-0.2 -0.1-0.1-0.2-0.2-0.2-0.4 -0.1-0.1-0.1-0.3-0.1-0.5v-1.6c0-0.2 0-0.3 0.1-0.5 0.1-0.1 0.1-0.3 0.2-0.4 0.1-0.1 0.2-0.2 0.4-0.2 0.1-0.1 0.3-0.1 0.5-0.1 0.2 0 0.3 0 0.5 0.1 0.1 0.1 0.3 0.1 0.4 0.2 0.1 0.1 0.2 0.2 0.3 0.4 0.1 0.2 0.1 0.3 0.1 0.5v1.6c0 0.2 0 0.3-0.1 0.5 -0.1 0.1-0.1 0.3-0.3 0.4 -0.1 0.1-0.2 0.2-0.4 0.2C55.5 185.1 55.4 185.1 55.2 185.1M54.4 183.9c0 0.3 0.1 0.5 0.2 0.7 0.2 0.2 0.4 0.2 0.6 0.2 0.2 0 0.5-0.1 0.6-0.2 0.2-0.2 0.2-0.4 0.2-0.7v-1.6c0-0.3-0.1-0.5-0.2-0.7 -0.2-0.2-0.4-0.2-0.6-0.2 -0.3 0-0.5 0.1-0.6 0.2 -0.2 0.2-0.2 0.4-0.2 0.7V183.9z" style="clip-path:url(#SVGID_2_);fill:#FFF"/><path d="M57.2 181.2h0.3v0.4c0.1-0.1 0.2-0.2 0.4-0.3 0.2-0.1 0.3-0.1 0.5-0.1 0.2 0 0.3 0 0.5 0.1 0.1 0.1 0.3 0.1 0.4 0.3 0.1 0.1 0.2 0.2 0.2 0.4 0.1 0.1 0.1 0.3 0.1 0.5v2.7h-0.3v-2.7c0-0.3-0.1-0.5-0.2-0.7 -0.2-0.2-0.4-0.2-0.6-0.2 -0.2 0-0.5 0.1-0.6 0.2 -0.2 0.2-0.2 0.4-0.2 0.7v2.7h-0.3V181.2z" style="clip-path:url(#SVGID_2_);fill:#FFF"/><path d="M62.6 184.6c0.1 0.1 0.2 0.1 0.2 0.1 0.1 0 0.2 0 0.3 0 0.2 0 0.5-0.1 0.6-0.2 0.2-0.2 0.2-0.4 0.2-0.7v-1.5c0-0.3-0.1-0.5-0.2-0.7 -0.2-0.2-0.4-0.2-0.6-0.2 -0.2 0-0.5 0.1-0.6 0.2 -0.2 0.2-0.2 0.4-0.2 0.7v4.8H62v-5.9h0.3v0.4c0.1-0.1 0.2-0.2 0.4-0.3 0.2-0.1 0.3-0.1 0.5-0.1 0.2 0 0.3 0 0.5 0.1 0.1 0.1 0.3 0.1 0.4 0.3 0.1 0.1 0.2 0.2 0.2 0.4 0.1 0.1 0.1 0.3 0.1 0.5v1.5c0 0.2 0 0.3-0.1 0.5 -0.1 0.2-0.1 0.3-0.3 0.4 -0.1 0.1-0.2 0.2-0.4 0.2 -0.1 0.1-0.3 0.1-0.5 0.1 -0.2 0-0.4 0-0.5-0.1V184.6z" style="clip-path:url(#SVGID_2_);fill:#FFF"/><path d="M66.2 185.1c-0.2 0-0.3 0-0.5-0.1 -0.1-0.1-0.3-0.1-0.4-0.2 -0.1-0.1-0.2-0.2-0.2-0.4 -0.1-0.1-0.1-0.3-0.1-0.5v-1.6c0-0.2 0-0.3 0.1-0.5 0.1-0.1 0.1-0.3 0.2-0.4 0.1-0.1 0.2-0.2 0.4-0.2 0.1-0.1 0.3-0.1 0.5-0.1 0.2 0 0.3 0 0.5 0.1 0.1 0.1 0.3 0.1 0.4 0.2 0.1 0.1 0.2 0.2 0.3 0.4 0.1 0.2 0.1 0.3 0.1 0.5v1.6c0 0.2 0 0.3-0.1 0.5 -0.1 0.1-0.1 0.3-0.3 0.4 -0.1 0.1-0.2 0.2-0.4 0.2C66.5 185.1 66.4 185.1 66.2 185.1M65.4 183.9c0 0.3 0.1 0.5 0.2 0.7 0.2 0.2 0.4 0.2 0.6 0.2 0.2 0 0.5-0.1 0.6-0.2 0.2-0.2 0.2-0.4 0.2-0.7v-1.6c0-0.3-0.1-0.5-0.2-0.7 -0.2-0.2-0.4-0.2-0.6-0.2 -0.3 0-0.5 0.1-0.6 0.2 -0.2 0.2-0.2 0.4-0.2 0.7V183.9z" style="clip-path:url(#SVGID_2_);fill:#FFF"/><polygon points="71.7 181.2 70.9 185.1 70.4 185.1 69.8 181.6 69.1 185.1 68.6 185.1 67.9 181.2 68.2 181.2 68.9 184.7 69.5 181.2 70 181.2 70.7 184.7 71.3 181.2 " style="clip-path:url(#SVGID_2_);fill:#FFF"/><path d="M72.8 183.1h0.5c0.2 0 0.5-0.1 0.6-0.2 0.2-0.2 0.2-0.3 0.2-0.6 0-0.3-0.1-0.5-0.2-0.6 -0.2-0.1-0.4-0.2-0.6-0.2 -0.3 0-0.5 0.1-0.6 0.2 -0.2 0.1-0.2 0.4-0.2 0.6v1.6c0 0.3 0.1 0.5 0.2 0.7 0.2 0.2 0.4 0.2 0.6 0.2 0.3 0 0.5-0.1 0.7-0.3l0.2 0.2c-0.1 0.2-0.2 0.3-0.4 0.4 -0.2 0.1-0.4 0.1-0.5 0.1 -0.2 0-0.3 0-0.5-0.1 -0.1-0.1-0.3-0.1-0.4-0.2 -0.1-0.1-0.2-0.2-0.2-0.4 -0.1-0.1-0.1-0.3-0.1-0.5v-1.6c0-0.2 0-0.3 0.1-0.5 0.1-0.1 0.1-0.3 0.2-0.4 0.1-0.1 0.2-0.2 0.4-0.3 0.1-0.1 0.3-0.1 0.5-0.1 0.2 0 0.3 0 0.5 0.1 0.1 0.1 0.3 0.1 0.4 0.3 0.1 0.1 0.2 0.2 0.3 0.4 0.1 0.1 0.1 0.3 0.1 0.5 0 0.2 0 0.3-0.1 0.4 -0.1 0.1-0.1 0.2-0.3 0.3 -0.1 0.1-0.2 0.2-0.4 0.2 -0.1 0.1-0.3 0.1-0.5 0.1h-0.5V183.1z" style="clip-path:url(#SVGID_2_);fill:#FFF"/><path d="M75.3 181.2h0.3v0.4c0.2-0.2 0.4-0.3 0.7-0.4 0.2-0.1 0.5 0 0.7 0.1v0.4c-0.1-0.1-0.3-0.2-0.5-0.2 -0.2 0-0.3 0-0.5 0.1 -0.1 0.1-0.3 0.2-0.4 0.3 -0.1 0.1-0.1 0.3-0.1 0.5v2.8h-0.3V181.2z" style="clip-path:url(#SVGID_2_);fill:#FFF"/><path d="M78.1 183.1h0.5c0.2 0 0.5-0.1 0.6-0.2 0.2-0.2 0.2-0.3 0.2-0.6 0-0.3-0.1-0.5-0.2-0.6 -0.2-0.1-0.4-0.2-0.6-0.2 -0.3 0-0.5 0.1-0.6 0.2 -0.2 0.1-0.2 0.4-0.2 0.6v1.6c0 0.3 0.1 0.5 0.2 0.7 0.2 0.2 0.4 0.2 0.6 0.2 0.3 0 0.5-0.1 0.7-0.3l0.2 0.2c-0.1 0.2-0.2 0.3-0.4 0.4 -0.2 0.1-0.4 0.1-0.5 0.1 -0.2 0-0.3 0-0.5-0.1 -0.1-0.1-0.3-0.1-0.4-0.2 -0.1-0.1-0.2-0.2-0.2-0.4 -0.1-0.1-0.1-0.3-0.1-0.5v-1.6c0-0.2 0-0.3 0.1-0.5 0.1-0.1 0.1-0.3 0.2-0.4 0.1-0.1 0.2-0.2 0.4-0.3 0.1-0.1 0.3-0.1 0.5-0.1 0.2 0 0.3 0 0.5 0.1 0.1 0.1 0.3 0.1 0.4 0.3 0.1 0.1 0.2 0.2 0.3 0.4 0.1 0.1 0.1 0.3 0.1 0.5 0 0.2 0 0.3-0.1 0.4 -0.1 0.1-0.1 0.2-0.3 0.3 -0.1 0.1-0.2 0.2-0.4 0.2 -0.1 0.1-0.3 0.1-0.5 0.1h-0.5V183.1z" style="clip-path:url(#SVGID_2_);fill:#FFF"/><path d="M82.2 181.7c-0.1-0.1-0.2-0.1-0.2-0.1 -0.1 0-0.2 0-0.3 0 -0.2 0-0.5 0.1-0.6 0.2 -0.2 0.2-0.2 0.4-0.2 0.7v1.5c0 0.3 0.1 0.5 0.2 0.7 0.2 0.2 0.4 0.2 0.6 0.2 0.2 0 0.4-0.1 0.6-0.2 0.2-0.1 0.3-0.4 0.3-0.6v-4.3h0.3v4.3c0 0.1 0 0.3 0 0.4 0 0.1 0 0.2 0 0.3 0 0.1 0 0.1 0.1 0.2 0 0 0.1 0.1 0.2 0.1v0.3c-0.2 0-0.3 0-0.4-0.1 -0.1-0.1-0.1-0.2-0.2-0.3 -0.1 0.1-0.2 0.3-0.4 0.3 -0.2 0.1-0.3 0.1-0.5 0.1 -0.2 0-0.3 0-0.5-0.1 -0.1-0.1-0.3-0.1-0.4-0.2 -0.1-0.1-0.2-0.2-0.2-0.4 -0.1-0.1-0.1-0.3-0.1-0.5v-1.5c0-0.2 0-0.3 0.1-0.5 0.1-0.2 0.1-0.3 0.3-0.4 0.1-0.1 0.2-0.2 0.4-0.2 0.1-0.1 0.3-0.1 0.5-0.1 0.2 0 0.4 0 0.5 0.1V181.7z" style="clip-path:url(#SVGID_2_);fill:#FFF"/><path d="M86.1 181.3c0.2-0.1 0.3-0.1 0.5-0.1 0.2 0 0.3 0 0.5 0.1 0.1 0.1 0.3 0.1 0.4 0.2 0.1 0.1 0.2 0.2 0.3 0.4 0.1 0.1 0.1 0.3 0.1 0.5v1.5c0 0.2 0 0.3-0.1 0.5 -0.1 0.1-0.1 0.3-0.2 0.4 -0.1 0.1-0.2 0.2-0.4 0.2 -0.1 0.1-0.3 0.1-0.5 0.1 -0.2 0-0.3 0-0.5-0.1 -0.1-0.1-0.3-0.1-0.4-0.2 -0.1-0.1-0.2-0.2-0.3-0.4 -0.1-0.1-0.1-0.3-0.1-0.5v-4.3h0.3v4.3c0 0.3 0.1 0.5 0.2 0.7 0.2 0.2 0.4 0.2 0.6 0.2 0.3 0 0.5-0.1 0.6-0.2 0.2-0.2 0.2-0.4 0.2-0.7v-1.5c0-0.3-0.1-0.5-0.2-0.7 -0.2-0.2-0.4-0.2-0.6-0.2 -0.1 0-0.2 0-0.3 0 -0.1 0-0.2 0.1-0.2 0.1V181.3z" style="clip-path:url(#SVGID_2_);fill:#FFF"/><path d="M89.3 185.3l-1-4.2h0.3l0.9 3.5 0.9-3.5h0.3l-1.3 5.1c0 0.1-0.1 0.3-0.2 0.4 -0.1 0.1-0.2 0.2-0.3 0.3 -0.1 0.1-0.2 0.1-0.3 0.2 -0.1 0-0.2 0.1-0.4 0.1v-0.3c0.2 0 0.4-0.1 0.5-0.2 0.2-0.1 0.3-0.3 0.3-0.5L89.3 185.3z" style="clip-path:url(#SVGID_2_);fill:#FFF"/><path d="M95.8 179.6h0.3v3.9c0 0.2 0 0.5-0.1 0.7 -0.1 0.2-0.2 0.4-0.3 0.5 -0.1 0.1-0.3 0.3-0.5 0.3 -0.2 0.1-0.4 0.1-0.6 0.1 -0.2 0-0.4 0-0.6-0.1 -0.2-0.1-0.4-0.2-0.5-0.3 -0.1-0.1-0.3-0.3-0.3-0.5 -0.1-0.2-0.1-0.4-0.1-0.7v-3.9h0.3v3.9c0 0.2 0 0.4 0.1 0.5 0.1 0.2 0.2 0.3 0.3 0.4 0.1 0.1 0.3 0.2 0.4 0.3 0.2 0.1 0.3 0.1 0.5 0.1 0.2 0 0.3 0 0.5-0.1 0.2-0.1 0.3-0.2 0.4-0.3 0.1-0.1 0.2-0.3 0.3-0.4 0.1-0.2 0.1-0.3 0.1-0.5V179.6z" style="clip-path:url(#SVGID_2_);fill:#FFF"/><path d="M97.1 181.2h0.3v0.4c0.1-0.1 0.2-0.2 0.4-0.3 0.2-0.1 0.3-0.1 0.5-0.1 0.2 0 0.3 0 0.5 0.1 0.1 0.1 0.3 0.1 0.4 0.3 0.1 0.1 0.2 0.2 0.2 0.4 0.1 0.1 0.1 0.3 0.1 0.5v2.7h-0.3v-2.7c0-0.3-0.1-0.5-0.2-0.7 -0.2-0.2-0.4-0.2-0.6-0.2 -0.3 0-0.5 0.1-0.6 0.2 -0.2 0.2-0.2 0.4-0.2 0.7v2.7h-0.3V181.2z" style="clip-path:url(#SVGID_2_);fill:#FFF"/><path d="M100.3 180.3c0-0.1 0-0.1 0.1-0.1 0 0 0.1-0.1 0.1-0.1 0.1 0 0.1 0 0.1 0.1 0 0 0.1 0.1 0.1 0.1 0 0.1 0 0.1-0.1 0.1 0 0-0.1 0.1-0.1 0.1 -0.1 0-0.1 0-0.1-0.1C100.4 180.4 100.3 180.3 100.3 180.3M100.4 181.2h0.3v3.9h-0.3V181.2z" style="clip-path:url(#SVGID_2_);fill:#FFF"/><path d="M102.2 184.3c0.1 0.1 0.1 0.2 0.2 0.3 0.1 0.1 0.2 0.1 0.4 0.2 0.1 0 0.2 0 0.3 0v0.3c-0.1 0-0.3 0-0.4 0 -0.2 0-0.3-0.1-0.5-0.2 -0.1-0.1-0.2-0.2-0.3-0.4 -0.1-0.2-0.1-0.3-0.1-0.6v-2.4h-0.3v-0.3h0.3v-1.6h0.3v1.6h0.7v0.3h-0.7v2.4C102.1 184.1 102.1 184.2 102.2 184.3" style="clip-path:url(#SVGID_2_);fill:#FFF"/><path d="M104.2 183.1h0.5c0.2 0 0.5-0.1 0.6-0.2 0.2-0.2 0.2-0.3 0.2-0.6 0-0.3-0.1-0.5-0.2-0.6 -0.2-0.1-0.4-0.2-0.6-0.2 -0.3 0-0.5 0.1-0.6 0.2 -0.2 0.1-0.2 0.4-0.2 0.6v1.6c0 0.3 0.1 0.5 0.2 0.7 0.2 0.2 0.4 0.2 0.6 0.2 0.3 0 0.5-0.1 0.7-0.3l0.3 0.2c-0.1 0.2-0.2 0.3-0.4 0.4 -0.2 0.1-0.4 0.1-0.5 0.1 -0.2 0-0.3 0-0.5-0.1 -0.1-0.1-0.3-0.1-0.4-0.2 -0.1-0.1-0.2-0.2-0.2-0.4 -0.1-0.1-0.1-0.3-0.1-0.5v-1.6c0-0.2 0-0.3 0.1-0.5 0.1-0.1 0.1-0.3 0.2-0.4 0.1-0.1 0.2-0.2 0.4-0.3 0.1-0.1 0.3-0.1 0.5-0.1 0.2 0 0.3 0 0.5 0.1 0.1 0.1 0.3 0.1 0.4 0.3 0.1 0.1 0.2 0.2 0.3 0.4 0.1 0.1 0.1 0.3 0.1 0.5 0 0.2 0 0.3-0.1 0.4 -0.1 0.1-0.1 0.2-0.3 0.3 -0.1 0.1-0.2 0.2-0.4 0.2 -0.1 0.1-0.3 0.1-0.5 0.1h-0.5V183.1z" style="clip-path:url(#SVGID_2_);fill:#FFF"/><path d="M108.3 181.7c-0.1-0.1-0.2-0.1-0.2-0.1 -0.1 0-0.2 0-0.3 0 -0.2 0-0.5 0.1-0.6 0.2 -0.2 0.2-0.2 0.4-0.2 0.7v1.5c0 0.3 0.1 0.5 0.2 0.7 0.2 0.2 0.4 0.2 0.6 0.2 0.2 0 0.4-0.1 0.6-0.2 0.2-0.1 0.3-0.4 0.3-0.6v-4.3h0.3v4.3c0 0.1 0 0.3 0 0.4 0 0.1 0 0.2 0 0.3 0 0.1 0 0.1 0.1 0.2 0 0 0.1 0.1 0.2 0.1v0.3c-0.2 0-0.3 0-0.4-0.1 -0.1-0.1-0.1-0.2-0.2-0.3 -0.1 0.1-0.2 0.3-0.4 0.3 -0.2 0.1-0.3 0.1-0.5 0.1 -0.2 0-0.3 0-0.5-0.1 -0.1-0.1-0.3-0.1-0.4-0.2 -0.1-0.1-0.2-0.2-0.2-0.4 -0.1-0.1-0.1-0.3-0.1-0.5v-1.5c0-0.2 0-0.3 0.1-0.5 0.1-0.2 0.1-0.3 0.3-0.4 0.1-0.1 0.2-0.2 0.4-0.2 0.1-0.1 0.3-0.1 0.5-0.1 0.2 0 0.4 0 0.5 0.1V181.7z" style="clip-path:url(#SVGID_2_);fill:#FFF"/><polygon points="111.7 179.6 114.3 179.6 114.3 179.9 112 179.9 112 181.9 113.6 181.9 113.6 182.2 112 182.2 112 185.1 111.7 185.1 " style="clip-path:url(#SVGID_2_);fill:#FFF"/><path d="M115 180.3c0-0.1 0-0.1 0.1-0.1 0 0 0.1-0.1 0.1-0.1 0.1 0 0.1 0 0.1 0.1 0 0 0.1 0.1 0.1 0.1 0 0.1 0 0.1-0.1 0.1 0 0-0.1 0.1-0.1 0.1 -0.1 0-0.1 0-0.1-0.1C115 180.4 115 180.3 115 180.3M115 181.2h0.3v3.9H115V181.2z" style="clip-path:url(#SVGID_2_);fill:#FFF"/><path d="M116.9 181.3c0.2-0.1 0.3-0.1 0.5-0.1 0.2 0 0.3 0 0.5 0.1 0.1 0.1 0.3 0.1 0.4 0.2 0.1 0.1 0.2 0.2 0.3 0.4 0.1 0.1 0.1 0.3 0.1 0.5v1.5c0 0.2 0 0.3-0.1 0.5 -0.1 0.1-0.1 0.3-0.2 0.4 -0.1 0.1-0.2 0.2-0.4 0.2 -0.1 0.1-0.3 0.1-0.5 0.1 -0.2 0-0.3 0-0.5-0.1 -0.1-0.1-0.3-0.1-0.4-0.2 -0.1-0.1-0.2-0.2-0.3-0.4 -0.1-0.1-0.1-0.3-0.1-0.5v-4.3h0.3v4.3c0 0.3 0.1 0.5 0.2 0.7 0.2 0.2 0.4 0.2 0.6 0.2 0.3 0 0.5-0.1 0.6-0.2 0.2-0.2 0.2-0.4 0.2-0.7v-1.5c0-0.3-0.1-0.5-0.2-0.7 -0.2-0.2-0.4-0.2-0.6-0.2 -0.1 0-0.2 0-0.3 0 -0.1 0-0.2 0.1-0.2 0.1V181.3z" style="clip-path:url(#SVGID_2_);fill:#FFF"/><path d="M120 183.1h0.5c0.2 0 0.5-0.1 0.6-0.2 0.2-0.2 0.2-0.3 0.2-0.6 0-0.3-0.1-0.5-0.2-0.6 -0.2-0.1-0.4-0.2-0.6-0.2 -0.3 0-0.5 0.1-0.6 0.2 -0.2 0.1-0.2 0.4-0.2 0.6v1.6c0 0.3 0.1 0.5 0.2 0.7 0.2 0.2 0.4 0.2 0.6 0.2 0.3 0 0.5-0.1 0.7-0.3l0.2 0.2c-0.1 0.2-0.2 0.3-0.4 0.4 -0.2 0.1-0.4 0.1-0.5 0.1 -0.2 0-0.3 0-0.5-0.1 -0.1-0.1-0.3-0.1-0.4-0.2 -0.1-0.1-0.2-0.2-0.2-0.4 -0.1-0.1-0.1-0.3-0.1-0.5v-1.6c0-0.2 0-0.3 0.1-0.5 0.1-0.1 0.1-0.3 0.2-0.4 0.1-0.1 0.2-0.2 0.4-0.3 0.1-0.1 0.3-0.1 0.5-0.1 0.2 0 0.3 0 0.5 0.1 0.1 0.1 0.3 0.1 0.4 0.3 0.1 0.1 0.2 0.2 0.3 0.4 0.1 0.1 0.1 0.3 0.1 0.5 0 0.2 0 0.3-0.1 0.4 -0.1 0.1-0.1 0.2-0.3 0.3 -0.1 0.1-0.2 0.2-0.4 0.2 -0.1 0.1-0.3 0.1-0.5 0.1H120V183.1z" style="clip-path:url(#SVGID_2_);fill:#FFF"/><path d="M122.5 181.2h0.3v0.4c0.2-0.2 0.4-0.3 0.7-0.4 0.2-0.1 0.5 0 0.7 0.1v0.4c-0.1-0.1-0.3-0.2-0.5-0.2 -0.2 0-0.3 0-0.5 0.1 -0.1 0.1-0.3 0.2-0.4 0.3 -0.1 0.1-0.1 0.3-0.1 0.5v2.8h-0.3V181.2z" style="clip-path:url(#SVGID_2_);fill:#FFF"/><path d="M128.5 182c0.3 0.6 0.6 1.1 1 1.6 0.4 0.5 0.8 1 1.2 1.4h-0.4c-0.4-0.4-0.7-0.8-1-1.3 0 0.2-0.1 0.3-0.2 0.5 -0.1 0.2-0.2 0.3-0.3 0.4 -0.1 0.1-0.3 0.2-0.4 0.3 -0.2 0.1-0.3 0.1-0.5 0.1 -0.2 0-0.4 0-0.6-0.1 -0.2-0.1-0.3-0.2-0.5-0.3 -0.1-0.1-0.2-0.3-0.3-0.5 -0.1-0.2-0.1-0.4-0.1-0.6 0-0.2 0-0.4 0.1-0.5 0.1-0.1 0.1-0.3 0.2-0.4 0.1-0.1 0.2-0.2 0.3-0.4 0.1-0.1 0.3-0.2 0.4-0.3 0.1 0 0.1-0.1 0.2-0.1 0.1 0 0.1-0.1 0.2-0.2 -0.2 0-0.3 0-0.4-0.1 -0.1-0.1-0.2-0.1-0.3-0.2 -0.1-0.1-0.2-0.2-0.2-0.3 -0.1-0.1-0.1-0.3-0.1-0.4 0-0.1 0-0.3 0.1-0.4 0.1-0.1 0.1-0.2 0.2-0.3 0.1-0.1 0.2-0.2 0.3-0.2 0.1-0.1 0.3-0.1 0.4-0.1 0.2 0 0.3 0 0.4 0.1 0.1 0.1 0.2 0.1 0.3 0.2 0.1 0.1 0.2 0.2 0.2 0.3 0.1 0.1 0.1 0.3 0.1 0.4 0 0.1 0 0.3-0.1 0.4 0 0.1-0.1 0.2-0.2 0.3 -0.2 0.2-0.4 0.4-0.5 0.5 -0.2 0.1-0.3 0.3-0.5 0.4 -0.1 0.1-0.3 0.2-0.4 0.3 -0.1 0.1-0.2 0.2-0.3 0.3 -0.1 0.1-0.2 0.2-0.2 0.3 -0.1 0.1-0.1 0.3-0.1 0.4 0 0.2 0 0.3 0.1 0.4 0.1 0.1 0.1 0.3 0.2 0.4 0.1 0.1 0.2 0.2 0.4 0.2 0.1 0.1 0.3 0.1 0.4 0.1 0.2 0 0.3 0 0.4-0.1 0.1-0.1 0.3-0.1 0.4-0.2 0.1-0.1 0.2-0.2 0.2-0.4 0.1-0.1 0.1-0.3 0.1-0.4 0-0.1 0-0.2 0-0.2 0-0.1 0-0.2-0.1-0.2 -0.1-0.2-0.2-0.3-0.3-0.5 -0.1-0.2-0.2-0.3-0.3-0.5L128.5 182zM127 180.7c0 0.2 0.1 0.4 0.2 0.6 0.2 0.2 0.3 0.2 0.6 0.2 0.2 0 0.4-0.1 0.6-0.2 0.2-0.2 0.2-0.3 0.2-0.6 0-0.2-0.1-0.4-0.2-0.6 -0.2-0.2-0.3-0.2-0.6-0.2 -0.2 0-0.4 0.1-0.6 0.2C127 180.3 127 180.5 127 180.7" style="clip-path:url(#SVGID_2_);fill:#FFF"/><path d="M134.4 179.6c0.2 0 0.4 0 0.6 0.1 0.2 0.1 0.4 0.2 0.5 0.3 0.1 0.1 0.3 0.3 0.3 0.5 0.1 0.2 0.1 0.4 0.1 0.7v2.2c0 0.2 0 0.5-0.1 0.7 -0.1 0.2-0.2 0.4-0.3 0.5 -0.1 0.1-0.3 0.3-0.5 0.3 -0.2 0.1-0.4 0.1-0.6 0.1h-1.6v-5.5H134.4zM135.7 181.3c0-0.2 0-0.4-0.1-0.5 -0.1-0.2-0.2-0.3-0.3-0.4 -0.1-0.1-0.3-0.2-0.4-0.3 -0.2-0.1-0.3-0.1-0.5-0.1h-1.3v4.8h1.3c0.2 0 0.3 0 0.5-0.1 0.2-0.1 0.3-0.2 0.4-0.3 0.1-0.1 0.2-0.3 0.3-0.4 0.1-0.2 0.1-0.3 0.1-0.5V181.3z" style="clip-path:url(#SVGID_2_);fill:#FFF"/><path d="M138.5 183.3c-0.1-0.1-0.2-0.1-0.2-0.1 -0.1 0-0.2 0-0.3 0 -0.2 0-0.5 0.1-0.6 0.2 -0.2 0.1-0.2 0.3-0.2 0.6 0 0.3 0.1 0.5 0.2 0.7 0.2 0.2 0.4 0.2 0.6 0.2 0.3 0 0.5-0.1 0.6-0.2 0.2-0.2 0.2-0.4 0.2-0.7v-1.6c0-0.3-0.1-0.5-0.2-0.7 -0.2-0.2-0.4-0.2-0.6-0.2 -0.3 0-0.5 0.1-0.7 0.3l-0.2-0.1c0.1-0.2 0.2-0.3 0.4-0.4 0.2-0.1 0.4-0.1 0.6-0.1 0.2 0 0.3 0 0.5 0.1 0.1 0.1 0.3 0.1 0.4 0.2 0.1 0.1 0.2 0.2 0.2 0.4 0.1 0.1 0.1 0.3 0.1 0.5v1.6c0 0.1 0 0.2 0 0.4 0 0.1 0 0.2 0 0.3 0 0.1 0 0.1 0.1 0.2 0 0 0.1 0.1 0.2 0.1v0.3c-0.2 0-0.3 0-0.4-0.1 -0.1-0.1-0.1-0.2-0.2-0.3 -0.1 0.1-0.2 0.2-0.4 0.3 -0.2 0.1-0.3 0.1-0.5 0.1 -0.2 0-0.3 0-0.5-0.1 -0.1-0.1-0.3-0.1-0.4-0.2 -0.1-0.1-0.2-0.2-0.3-0.4 -0.1-0.1-0.1-0.3-0.1-0.5 0-0.2 0-0.3 0.1-0.4 0.1-0.1 0.1-0.2 0.3-0.3 0.1-0.1 0.2-0.2 0.4-0.2 0.1-0.1 0.3-0.1 0.5-0.1 0.2 0 0.4 0 0.5 0.1V183.3z" style="clip-path:url(#SVGID_2_);fill:#FFF"/><path d="M140.5 184.3c0.1 0.1 0.1 0.2 0.2 0.3 0.1 0.1 0.2 0.1 0.4 0.2 0.1 0 0.2 0 0.3 0v0.3c-0.1 0-0.3 0-0.4 0 -0.2 0-0.3-0.1-0.4-0.2 -0.1-0.1-0.2-0.2-0.3-0.4 -0.1-0.2-0.1-0.3-0.1-0.6v-2.4h-0.3v-0.3h0.3v-1.6h0.3v1.6h0.7v0.3h-0.7v2.4C140.5 184.1 140.5 184.2 140.5 184.3" style="clip-path:url(#SVGID_2_);fill:#FFF"/><path d="M143.7 183.3c-0.1-0.1-0.2-0.1-0.2-0.1 -0.1 0-0.2 0-0.3 0 -0.2 0-0.5 0.1-0.6 0.2 -0.2 0.1-0.2 0.3-0.2 0.6 0 0.3 0.1 0.5 0.2 0.7 0.2 0.2 0.4 0.2 0.6 0.2 0.3 0 0.5-0.1 0.6-0.2 0.2-0.2 0.2-0.4 0.2-0.7v-1.6c0-0.3-0.1-0.5-0.2-0.7 -0.2-0.2-0.4-0.2-0.6-0.2 -0.3 0-0.5 0.1-0.7 0.3l-0.2-0.1c0.1-0.2 0.2-0.3 0.4-0.4 0.2-0.1 0.4-0.1 0.6-0.1 0.2 0 0.3 0 0.5 0.1 0.1 0.1 0.3 0.1 0.4 0.2 0.1 0.1 0.2 0.2 0.2 0.4 0.1 0.1 0.1 0.3 0.1 0.5v1.6c0 0.1 0 0.2 0 0.4 0 0.1 0 0.2 0 0.3 0 0.1 0 0.1 0.1 0.2 0 0 0.1 0.1 0.2 0.1v0.3c-0.2 0-0.3 0-0.4-0.1 -0.1-0.1-0.1-0.2-0.2-0.3 -0.1 0.1-0.2 0.2-0.4 0.3 -0.2 0.1-0.3 0.1-0.5 0.1 -0.2 0-0.3 0-0.5-0.1 -0.1-0.1-0.3-0.1-0.4-0.2 -0.1-0.1-0.2-0.2-0.3-0.4 -0.1-0.1-0.1-0.3-0.1-0.5 0-0.2 0-0.3 0.1-0.4 0.1-0.1 0.1-0.2 0.3-0.3 0.1-0.1 0.2-0.2 0.4-0.2 0.1-0.1 0.3-0.1 0.5-0.1 0.2 0 0.4 0 0.5 0.1V183.3z" style="clip-path:url(#SVGID_2_);fill:#FFF"/><polygon points="60 165.9 60.8 167.5 62.6 167.8 61.3 169.1 61.6 170.9 60 170.1 58.4 170.9 58.7 169.1 57.3 167.8 59.2 167.5 " style="clip-path:url(#SVGID_2_);fill:#FFF"/><polygon points="66.8 165.9 67.6 167.5 69.4 167.8 68.1 169.1 68.4 170.9 66.8 170.1 65.2 170.9 65.5 169.1 64.1 167.8 66 167.5 " style="clip-path:url(#SVGID_2_);fill:#FFF"/><polygon points="73.6 165.9 74.4 167.5 76.2 167.8 74.9 169.1 75.2 170.9 73.6 170.1 72 170.9 72.3 169.1 70.9 167.8 72.8 167.5 " style="clip-path:url(#SVGID_2_);fill:#FFF"/><polygon points="80.4 165.9 81.2 167.5 83 167.8 81.7 169.1 82 170.9 80.4 170.1 78.8 170.9 79.1 169.1 77.8 167.8 79.6 167.5 " style="clip-path:url(#SVGID_2_);fill:#FFF"/><polygon points="87.2 165.9 88 167.5 89.8 167.8 88.5 169.1 88.8 170.9 87.2 170.1 85.6 170.9 85.9 169.1 84.6 167.8 86.4 167.5 " style="clip-path:url(#SVGID_2_);fill:#FFF"/><polygon points="94 165.9 94.8 167.5 96.6 167.8 95.3 169.1 95.6 170.9 94 170.1 92.4 170.9 92.7 169.1 91.4 167.8 93.2 167.5 " style="clip-path:url(#SVGID_2_);fill:#FFF"/><path d="M76.9 159.4c-3.8 0-6.5-1.2-6.6-1.3l-0.3-0.1 0.1-0.3c0.4-2 0.6-4.1 0.8-6.3 -0.7 1.9-1.4 3.9-2.3 5.8l-0.1 0.3 -0.3-0.1c-6.3-1.4-7.8-4.4-7.9-4.5l-0.1-0.2 0.1-0.2c1.9-3.9 3.9-8.5 5-11.6 -2-1.5-4.1-3-6.4-4.6 -0.8-0.6-2.5-1.7-2.5-1.7l-0.2-0.1 0.1-0.3c0 0 0.4-2.1 0.8-4.2 -0.5 1.1-1 2.3-1.6 3.4l-0.2 0.3 -0.3-0.1c-0.6-0.2-5.8-1.9-6.5-3.6 -0.1-0.3-0.1-0.7 0-1 0.3-0.5 0.6-1.1 0.9-1.7l0-0.1c0.1-0.1 0.1-0.2 0.2-0.3l0-0.1c0.2-0.5 0.5-0.9 0.7-1.4 0.1-0.1 0.1-0.3 0.2-0.4l-0.4 0.5c-0.9 1-1.7 2-2.5 2.8l-0.2 0.2 -0.2-0.1c-0.6-0.2-6.1-2.2-6.7-4 -0.1-0.3-0.1-0.6 0.1-0.9l0.1-0.1c1.4-1.2 2.7-2.4 4.1-3.7 -1.8 1.1-3.6 2.1-5.6 3l-0.1 0.1 -0.2-0.1c-0.6-0.2-5.9-2.1-6.5-4 -0.1-0.4-0.1-0.8 0.2-1.2l0.1-0.1 0.1 0c2.4-1 4.9-2.1 7.3-3.4 -3.1 0.8-6.5 1.5-9.9 1.9l-0.1 0 -0.1 0c-0.2-0.1-5.6-2.4-6.5-4.9 -0.2-0.6-0.2-1.1 0.1-1.6l0.1-0.2 0.2 0c4-0.2 8.2-0.8 12.5-1.9 -5.2 0.1-10.8-0.5-16.1-1.7l-0.1-0.1c-0.3-0.2-6.5-4.8-4.7-8.5l0.2-0.3 0.3 0.1c4.8 2 10.4 3.3 16.6 3.9 -6.9-2.3-13.9-6-19.8-10.4C6.8 84.2 8.1 76 8.1 75.9l0.1-0.7 0.5 0.5c7.9 7.1 21.8 10.5 35.1 13.7 2.8 0.7 5.8 1.4 8.6 2.1l0.2 0.1 0 0.3c1.6 9.4 7.2 24.4 16.1 27.8l0.2-0.9c0.8-1.6 1.3-3.3 1.6-5 0.2-0.9 0.3-1.9 0.4-2.8 0.1-1.2 0.2-2.3 0.5-3.1l0-0.1 0.1-0.1c1.2-0.9 3.2-1.5 5.6-1.5 3 0 5.7 0.8 7 2.1 1.7 0 3.6 0.2 4.8 1.4 0.6 0.7 0.9 1.6 0.9 2.7l0 0.5 -0.5-0.1c-0.4-0.1-0.8-0.1-1.2-0.1 -1.4 0-2.9 0.6-4.5 1.2 -0.2 0.1-0.4 0.2-0.6 0.2 0.3 1.5 0.8 3.1 1.5 4.6l0 0.1 0.2 0.9c9.1-3.2 14.9-18.4 16.5-28l0-0.3 0.2-0.1c2.8-0.7 5.7-1.4 8.6-2.1 13.4-3.3 27.2-6.6 35.1-13.7l0.5-0.5 0.1 0.7c0 0.1 1.3 8.3-4.6 14.4 -5.9 4.4-12.9 8.1-19.8 10.5 6.2-0.6 11.8-1.9 16.6-3.8l0.3-0.1 0.2 0.3c1.8 3.7-4.4 8.3-4.7 8.5l-0.1 0.1c-5.3 1.2-10.9 1.7-16.1 1.7 4.4 1.1 8.6 1.7 12.5 1.9l0.2 0 0.1 0.2c0.3 0.5 0.3 1.1 0.1 1.6 -0.9 2.5-6.3 4.8-6.5 4.9l-0.1 0 -0.1 0c-3.4-0.4-6.7-1-9.9-1.9 2.4 1.3 4.9 2.5 7.3 3.4l0.1 0 0.1 0.1c0.3 0.4 0.3 0.8 0.2 1.2 -0.6 2-5.9 3.8-6.5 4l-0.2 0.1 -0.1-0.1c-1.9-0.9-3.8-1.9-5.6-3 1.3 1.3 2.7 2.6 4.1 3.7l0.1 0.1c0.2 0.3 0.2 0.6 0.1 0.9 -0.6 1.8-6.1 3.8-6.7 4l-0.2 0.1 -0.2-0.2c-0.8-0.9-1.7-1.8-2.5-2.8l-0.4-0.5c0.1 0.1 0.1 0.2 0.2 0.4 0.2 0.5 0.5 0.9 0.7 1.4l0.1 0.1c0 0.1 0.1 0.2 0.1 0.3 0.3 0.6 0.6 1.2 0.9 1.7 0.2 0.3 0.2 0.6 0 1 -0.7 1.7-5.9 3.5-6.5 3.6l-0.3 0.1 -0.2-0.3c-0.6-1.1-1.1-2.3-1.6-3.4 0.4 2.2 0.8 4.2 0.8 4.2l0.1 0.3 -0.2 0.1c0 0-1.7 1.1-2.5 1.7 -2.5 1.7-4.7 3.3-6.7 4.9 1.1 3.2 3.1 7.8 5 11.5l0.1 0.2 -0.1 0.2c-2.5 3.6-7.7 4.4-7.9 4.5l-0.3 0 -0.1-0.3c-0.9-2-1.7-3.9-2.3-5.8 0.2 2.2 0.4 4.3 0.8 6.3l0.1 0.3 -0.3 0.1C81.3 159 79.2 159.4 76.9 159.4M71 157.5c0.8 0.3 3 1.1 6 1.1 2 0 4-0.4 5.8-1.1 -0.5-3-0.8-6.1-0.9-9.3l-0.1-3.3 0.9 3.2c0.8 2.8 1.8 5.7 3.1 8.5 1.1-0.2 4.9-1.2 6.9-3.9 -1.9-3.8-3.9-8.5-5-11.6l0-0.1 0-0.2 0.2-0.1c2.1-1.6 4.3-3.3 6.9-5 0.6-0.4 1.8-1.2 2.3-1.5 -0.2-1-0.9-5-1.2-7.4l-0.3-3.3 1.1 3.1c0.7 2.1 1.6 4.1 2.6 6.2 2.1-0.7 5.3-2.1 5.7-3.1 0.1-0.1 0-0.2 0-0.3 -0.3-0.6-0.6-1.1-0.9-1.8 0-0.1-0.1-0.2-0.1-0.3l-0.1-0.1c-0.2-0.5-0.5-0.9-0.7-1.4 -0.6-1.2-1.1-2.3-1.5-3.4l-1.3-3 1.9 2.6c0.8 1 1.6 2.1 2.4 3.1l0.4 0.5c0.6 0.7 1.3 1.4 1.9 2.1 2.2-0.8 5.7-2.4 6-3.4 0-0.1 0-0.1 0-0.2 -2.2-1.8-4.3-3.9-6.4-6.1l-2.3-2.5 2.8 1.9c2.5 1.7 5.2 3.3 8.1 4.7 2.1-0.8 5.5-2.3 5.8-3.5 0-0.1 0-0.3 0-0.4 -3.4-1.4-6.8-3.1-10.2-5.1l-3-1.8 3.3 1.1c4 1.3 8.3 2.3 12.9 2.8 1.5-0.7 5.3-2.6 6-4.4 0.1-0.3 0.1-0.6 0-0.8 -5-0.2-10.3-1.2-15.8-2.8l-3.4-1 3.5 0.2c6.1 0.4 12.8-0.1 19.2-1.5 0.6-0.5 5.4-4.2 4.5-7.1 -5.7 2.3-12.4 3.6-19.9 4l-3.5 0.2 3.4-0.9c7.8-2.2 16.1-6.3 22.7-11.3 4.6-4.7 4.6-10.8 4.4-12.9 -8.1 6.9-21.7 10.2-34.9 13.4 -2.9 0.7-5.6 1.4-8.3 2.1 -1.7 10-7.8 25.6-17.4 28.5l-0.4 0.1 -0.3-1.7c-0.8-1.7-1.3-3.4-1.6-5l-0.1-0.3 0.3-0.1c0.3-0.1 0.6-0.2 0.9-0.3 1.7-0.6 3.2-1.3 4.8-1.3 0.3 0 0.6 0 0.9 0.1 0-0.7-0.3-1.2-0.7-1.6 -1-1-3-1.1-4.4-1.1h-0.2l-0.1-0.1c-1.1-1.2-3.7-1.9-6.6-1.9 -2.1 0-3.9 0.4-5 1.2 -0.2 0.7-0.3 1.7-0.4 2.8 -0.1 0.9-0.2 1.9-0.4 2.8 -0.3 1.7-0.9 3.4-1.6 5.1l-0.3 1.6 -0.4-0.1C59.6 117.5 53.7 102 52 92.3c-2.7-0.7-5.4-1.4-8.3-2.1C30.6 87 17 83.7 8.8 76.8c-0.2 2.1-0.2 8.2 4.5 13 6.6 5 14.9 9.1 22.7 11.3l3.4 0.9 -3.5-0.2c-7.5-0.3-14.2-1.7-19.9-4 -0.9 2.9 3.9 6.6 4.5 7.1 6.4 1.4 13.2 1.9 19.2 1.5l3.5-0.2 -3.4 1c-5.5 1.6-10.8 2.6-15.8 2.8 -0.1 0.3-0.1 0.5 0 0.8 0.7 1.8 4.4 3.7 6 4.4 4.5-0.5 8.9-1.5 12.9-2.8l3.3-1.1 -3 1.8c-3.4 2.1-6.9 3.8-10.2 5.1 -0.1 0.1-0.1 0.3 0 0.4 0.4 1.2 3.7 2.7 5.8 3.5 2.9-1.4 5.6-3 8.1-4.7l2.8-1.9 -2.3 2.5c-2 2.2-4.2 4.3-6.4 6.1 0 0 0 0.1 0 0.2 0.4 1 3.8 2.6 6 3.4 0.7-0.7 1.4-1.5 2.1-2.3l0.3-0.3c0.8-1 1.7-2 2.4-3l2-2.7 -1.3 3.1c-0.5 1.1-1 2.2-1.5 3.4 -0.2 0.5-0.5 0.9-0.7 1.4l0 0.1c-0.1 0.1-0.1 0.2-0.2 0.3l0 0.1c-0.3 0.6-0.6 1.1-0.9 1.7 0 0.1-0.1 0.1 0 0.3 0.4 1 3.6 2.4 5.7 3.1 1-2.1 1.9-4.2 2.6-6.2l1.1-3.1 -0.4 3.3c-0.3 2.4-1 6.3-1.2 7.4 0.5 0.3 1.6 1.1 2.3 1.5 2.4 1.7 4.6 3.2 6.6 4.8l0.2 0.1 -0.1 0.4c-1.1 3.1-3.1 7.8-5 11.7 0.4 0.6 2.1 2.7 6.9 3.9 1.3-2.9 2.3-5.7 3.1-8.5l0.9-3.2 -0.1 3.3C71.8 151.4 71.5 154.6 71 157.5" style="clip-path:url(#SVGID_2_);fill:#FFF"/></g><g id="Layer_2"/></svg>