<?xml version="1.0" encoding="utf-8"?>
<!-- Generator: Adobe Illustrator 19.1.0, SVG Export Plug-In . SVG Version: 6.00 Build 0)  -->
<svg version="1.1" id="Layer_1" xmlns="http://www.w3.org/2000/svg" xmlns:xlink="http://www.w3.org/1999/xlink" x="0px" y="0px"
	 viewBox="-264 375.6 70.6 50.4" style="enable-background:new -264 375.6 70.6 50.4;" xml:space="preserve">
<style type="text/css">
	.st0{display:none;}
	.st1{fill:#FFFFFF;}
</style>
<g id="neat" class="st0">
</g>
<g id="Layer_7" class="st0">
</g>
<g id="neat_copy" class="st0">
</g>
<g id="neat_copy_2" class="st0">
</g>
<g id="Logo" class="st0">
</g>
<polygon class="st1" points="-237.5,423.4 -237,424.2 -236.1,424.4 -236.8,425 -236.6,426 -237.5,425.5 -238.3,426 -238.1,425 
	-238.8,424.4 -237.9,424.2 "/>
<polygon class="st1" points="-234,423.4 -233.6,424.2 -232.6,424.4 -233.3,425 -233.1,426 -234,425.5 -234.8,426 -234.7,425 
	-235.3,424.4 -234.4,424.2 "/>
<polygon class="st1" points="-230.5,423.4 -230.1,424.2 -229.2,424.4 -229.8,425 -229.7,426 -230.5,425.5 -231.3,426 -231.2,425 
	-231.9,424.4 -230.9,424.2 "/>
<polygon class="st1" points="-227,423.4 -226.6,424.2 -225.7,424.4 -226.4,425 -226.2,426 -227,425.5 -227.9,426 -227.7,425 
	-228.4,424.4 -227.5,424.2 "/>
<polygon class="st1" points="-223.6,423.4 -223.1,424.2 -222.2,424.4 -222.9,425 -222.7,426 -223.6,425.5 -224.4,426 -224.2,425 
	-224.9,424.4 -224,424.2 "/>
<polygon class="st1" points="-220.1,423.4 -219.7,424.2 -218.7,424.4 -219.4,425 -219.3,426 -220.1,425.5 -220.9,426 -220.8,425 
	-221.4,424.4 -220.5,424.2 "/>
<path class="st1" d="M-228.8,419.9c-1.9,0-3.3-0.6-3.4-0.7l-0.1-0.1v-0.2c0.2-1.1,0.3-2.2,0.4-3.3c-0.3,1-0.7,2-1.2,3.1l-0.1,0.2
	h-0.2c-3.2-0.7-4-2.3-4-2.4v-0.1v-0.1c1-2,2-4.5,2.6-6.1c-1-0.8-2.1-1.6-3.3-2.4c-0.4-0.3-1.3-0.9-1.3-0.9l-0.1-0.1v-0.1
	c0,0,0.2-1.1,0.4-2.2c-0.2,0.6-0.5,1.2-0.8,1.8l-0.1,0.2v-0.1c-0.3-0.1-3-1-3.3-1.9c-0.1-0.2-0.1-0.4,0-0.5c0.2-0.3,0.3-0.6,0.5-0.9
	c0-0.1,0.1-0.1,0.1-0.2l0,0c0.1-0.2,0.2-0.5,0.4-0.7c0-0.1,0.1-0.1,0.1-0.2l-0.2,0.3c-0.4,0.5-0.9,1-1.3,1.5l-0.1,0.1h-0.1
	c-0.4-0.3-3.2-1.3-3.5-2.3c-0.1-0.2,0-0.3,0-0.5l0,0c0.7-0.6,1.4-1.3,2.1-2c-0.9,0.6-1.9,1.1-2.8,1.6h-0.1h-0.1
	c-0.3-0.1-3-1.1-3.3-2.1c-0.1-0.2,0-0.4,0.1-0.6l0,0h0.1c1.2-0.5,2.5-1.1,3.7-1.8c-1.6,0.4-3.3,0.8-5,1h-0.1l0,0
	c-0.1-0.1-2.8-1.2-3.3-2.6c-0.1-0.3-0.1-0.6,0-0.9l0.1-0.2h0.1c2-0.1,4.2-0.4,6.4-1c-2.7,0-5.5-0.3-8.2-0.9h-0.1
	c-0.1-0.1-3.3-2.5-2.4-4.5l0.1-0.2l0.1,0.2c2.5,1.1,5.3,1.7,8.5,2c-3.5-1.2-7.1-3.2-10.1-5.5c-3-3.2-2.4-7.5-2.4-7.6l0.1-0.4
	l0.3,0.3c4,3.7,11.1,5.5,17.9,7.2c1.5,0.4,3,0.7,4.4,1.1h0.1v0.1c0.8,4.9,3.7,12.8,8.2,14.6l0.1-0.5c0.4-0.9,0.7-1.7,0.8-2.6
	c0.1-0.5,0.1-1,0.2-1.5c0.1-0.6,0.1-1.2,0.3-1.6v-0.1l0,0c0.6-0.5,1.6-0.8,2.9-0.8c1.5,0,2.9,0.4,3.6,1.1c0.8,0,1.9,0.1,2.4,0.7
	c0.3,0.3,0.5,0.8,0.5,1.4v0.3l-0.2-0.1c-0.2-0.1-0.4-0.1-0.6-0.1c-0.7,0-1.5,0.3-2.3,0.6c-0.1,0-0.2,0.1-0.3,0.1
	c0.2,0.8,0.4,1.6,0.8,2.4v0.1l0.1,0.5c4.7-1.7,7.6-9.7,8.4-14.7V384h0.1c1.4-0.4,2.9-0.8,4.4-1.1c6.8-1.5,13.8-3.3,17.9-7l0.3-0.3
	l0.1,0.4c0,0,0.7,4.3-2.3,7.6c-3,2.3-6.6,4.3-10.1,5.5c3.2-0.3,6-1,8.5-2l0.2-0.1l0.1,0.2c0.9,1.9-2.3,4.4-2.4,4.5h-0.1
	c-2.7,0.6-5.6,0.9-8.2,0.9c2.2,0.6,4.4,0.9,6.4,1h0.1l0.1,0.1c0.1,0.3,0.1,0.6,0,0.9c-0.5,1.3-3.2,2.5-3.3,2.6l0,0h-0.1
	c-1.7-0.2-3.4-0.5-5-1c1.2,0.7,2.5,1.3,3.7,1.8h0.1l0,0c0.1,0.2,0.2,0.4,0.1,0.6c-0.3,1-3,2-3.3,2.1h-0.1h-0.1c-1-0.5-1.9-1-2.9-1.6
	c0.7,0.7,1.4,1.4,2.1,2l0,0c0.1,0.1,0.1,0.3,0,0.5c-0.3,0.9-3.1,2-3.4,2.1h-0.1l-0.2-0.1c-0.4-0.5-0.9-1-1.3-1.5l-0.2-0.3
	c0,0.1,0.1,0.1,0.1,0.2c0.1,0.2,0.2,0.5,0.4,0.7v0.1c0,0,0,0.1,0.1,0.1c0.2,0.3,0.3,0.6,0.5,0.9c0.1,0.2,0.1,0.3,0,0.5
	c-0.4,0.9-3,1.8-3.3,1.9l-0.2,0.1l-0.1-0.2c-0.3-0.6-0.6-1.2-0.8-1.8c0.2,1.1,0.4,2.2,0.4,2.2v0.1l-0.1,0.1c0,0-0.8,0.6-1.3,0.9
	c-1.3,0.9-2.4,1.7-3.4,2.6c0.6,1.7,1.6,4.1,2.5,6.1l0.1,0.1l-0.1,0.2c-1.3,1.9-3.9,2.3-4,2.4h-0.2l-0.1-0.1c-0.5-1-0.8-2.1-1.2-3.1
	c0.1,1.1,0.2,2.3,0.4,3.3v0.2l-0.2,0.1C-226.6,419.7-227.7,419.9-228.8,419.9z M-231.9,419c0.4,0.2,1.5,0.6,3,0.6c1,0,2-0.2,3-0.6
	c-0.3-1.6-0.4-3.2-0.5-4.9l-0.1-1.7l0.5,1.7c0.4,1.5,0.9,3,1.6,4.5c0.6-0.1,2.5-0.6,3.5-2.1c-1-2-2-4.5-2.5-6.1v-0.2l0.1-0.1
	c1.1-0.9,2.2-1.7,3.5-2.7c0.3-0.2,0.9-0.6,1.2-0.8c-0.1-0.5-0.5-2.6-0.6-3.9l-0.2-1.7l0.6,1.6c0.4,1.1,0.8,2.2,1.3,3.3
	c1.1-0.4,2.7-1.1,2.9-1.6c0-0.1,0-0.1,0-0.2c-0.2-0.3-0.3-0.6-0.5-0.9c0,0-0.1-0.1-0.1-0.2v-0.1c-0.1-0.2-0.2-0.5-0.4-0.7
	c-0.3-0.6-0.6-1.2-0.8-1.8l-0.6-1.6l1,1.4c0.4,0.5,0.8,1.1,1.2,1.6l0.2,0.3c0.3,0.4,0.6,0.7,0.9,1.1c1.1-0.4,2.9-1.3,3.1-1.8v-0.1
	c-1.1-1-2.2-2.1-3.3-3.2l-1.2-1.3l1.4,1c1.3,0.9,2.7,1.7,4.2,2.5c1.1-0.4,2.8-1.2,3-1.8c0-0.1,0-0.1,0-0.2c-1.7-0.7-3.5-1.6-5.2-2.7
	l-1.4-1l1.7,0.6c2,0.7,4.3,1.2,6.6,1.5c0.8-0.3,2.7-1.4,3-2.3c0.1-0.2,0.1-0.3,0-0.4c-2.5-0.1-5.2-0.6-8-1.5l-1.7-0.5l1.8,0.1
	c3.1,0.2,6.5-0.1,9.8-0.8c0.3-0.2,2.8-2.2,2.3-3.7c-2.9,1.2-6.3,1.9-10.1,2.1l-1.8,0.1l1.7-0.5c4-1.1,8.2-3.3,11.6-6
	c2.3-2.5,2.3-5.7,2.3-6.8c-4.2,3.5-11.1,5.3-17.9,7c-1.4,0.4-2.8,0.7-4.2,1.1c-0.9,5.2-4,13.5-8.9,15h-0.2l-0.2-0.9
	c-0.4-0.9-0.7-1.8-0.8-2.6v-0.2l0.2-0.1c0.2-0.1,0.3-0.1,0.5-0.2c0.9-0.3,1.7-0.7,2.5-0.7c0.2,0,0.3,0,0.4,0c0-0.4-0.1-0.6-0.3-0.9
	c-0.6-0.4-1.6-0.4-2.4-0.4h-0.1l-0.1-0.1c-0.6-0.6-1.9-1-3.4-1c-1.1,0-2,0.2-2.6,0.6c-0.1,0.4-0.2,0.9-0.2,1.5c0,0.5-0.1,1-0.2,1.5
	c-0.2,0.9-0.4,1.8-0.8,2.7v0.8l-0.2-0.1c-4.8-1.7-7.8-9.8-8.7-14.9c-1.4-0.4-2.8-0.7-4.2-1.1c-6.8-1.7-13.7-3.4-17.9-7
	c-0.1,1.1-0.1,4.3,2.3,6.8c3.4,2.6,7.6,4.8,11.6,5.9l1.7,0.5l-1.8-0.1c-3.8-0.2-7.3-0.9-10.2-2.1c-0.5,1.5,2,3.5,2.3,3.7
	c3.3,0.7,6.7,1,9.8,0.8l1.8-0.1l-1.7,0.5c-2.8,0.9-5.5,1.4-8,1.5c0,0.1,0,0.3,0,0.4c0.3,0.9,2.3,2,3,2.3c2.3-0.3,4.5-0.8,6.6-1.5
	l1.7-0.6l-1.5,1.1c-1.7,1.1-3.5,2-5.2,2.7c0,0.1,0,0.1,0,0.2c0.2,0.6,1.9,1.4,3,1.8c1.5-0.7,2.9-1.6,4.2-2.5l1.4-1l-1.2,1.3
	c-1,1.2-2.1,2.3-3.3,3.2v0.1c0.2,0.5,1.9,1.4,3.1,1.8c0.3-0.4,0.7-0.8,1-1.2l0.1-0.2c0.4-0.5,0.8-1.1,1.2-1.6l1-1.4l-0.7,1.6
	c-0.2,0.6-0.5,1.2-0.8,1.8c-0.1,0.3-0.2,0.5-0.4,0.7c0,0.1-0.1,0.2-0.1,0.2c-0.2,0.3-0.3,0.6-0.5,0.9c0,0,0,0.1,0,0.2
	c0.2,0.5,1.8,1.2,2.9,1.6c0.5-1.1,1-2.2,1.3-3.3l0.6-1.6l-0.2,1.7c-0.1,1.3-0.5,3.3-0.6,3.9c0.2,0.2,0.8,0.6,1.2,0.8
	c1.2,0.9,2.3,1.7,3.4,2.5l0.1,0.1v0.2c-0.5,1.7-1.6,4.1-2.6,6.2c0.2,0.3,1.1,1.4,3.5,2c0.7-1.5,1.2-3,1.6-4.5l0.5-1.7l-0.1,1.7
	C-231.4,415.7-231.6,417.4-231.9,419z"/>
<g id="Layer_2">
</g>
</svg>
