<svg xmlns="http://www.w3.org/2000/svg" xmlns:xlink="http://www.w3.org/1999/xlink" version="1.1" id="Layer_1" x="0" y="0" viewBox="0 0 70.6 50.4" xml:space="preserve" enable-background="new 0 0 70.6 50.4"><style type="text/css">
	.st0{fill:#FFFFFF;}
</style><polygon class="st0" points="26.5 47.8 27 48.6 27.9 48.8 27.2 49.4 27.4 50.4 26.5 49.9 25.7 50.4 25.9 49.4 25.2 48.8 26.1 48.6 "/><polygon class="st0" points="30 47.8 30.4 48.6 31.4 48.8 30.7 49.4 30.9 50.4 30 49.9 29.2 50.4 29.3 49.4 28.7 48.8 29.6 48.6 "/><polygon class="st0" points="33.5 47.8 33.9 48.6 34.8 48.8 34.2 49.4 34.3 50.4 33.5 49.9 32.7 50.4 32.8 49.4 32.1 48.8 33.1 48.6 "/><polygon class="st0" points="37 47.8 37.4 48.6 38.3 48.8 37.6 49.4 37.8 50.4 37 49.9 36.1 50.4 36.3 49.4 35.6 48.8 36.5 48.6 "/><polygon class="st0" points="40.4 47.8 40.9 48.6 41.8 48.8 41.1 49.4 41.3 50.4 40.4 49.9 39.6 50.4 39.8 49.4 39.1 48.8 40 48.6 "/><polygon class="st0" points="43.9 47.8 44.3 48.6 45.3 48.8 44.6 49.4 44.7 50.4 43.9 49.9 43.1 50.4 43.2 49.4 42.6 48.8 43.5 48.6 "/><path class="st0" d="M35.2 44.3c-1.9 0-3.3-0.6-3.4-0.7l-0.1-0.1v-0.2c0.2-1.1 0.3-2.2 0.4-3.3 -0.3 1-0.7 2-1.2 3.1l-0.1 0.2h-0.2c-3.2-0.7-4-2.3-4-2.4v-0.1 -0.1c1-2 2-4.5 2.6-6.1 -1-0.8-2.1-1.6-3.3-2.4 -0.4-0.3-1.3-0.9-1.3-0.9l-0.1-0.1v-0.1c0 0 0.2-1.1 0.4-2.2 -0.2 0.6-0.5 1.2-0.8 1.8L24 30.9v-0.1c-0.3-0.1-3-1-3.3-1.9 -0.1-0.2-0.1-0.4 0-0.5 0.2-0.3 0.3-0.6 0.5-0.9 0-0.1 0.1-0.1 0.1-0.2l0 0c0.1-0.2 0.2-0.5 0.4-0.7 0-0.1 0.1-0.1 0.1-0.2l-0.2 0.3c-0.4 0.5-0.9 1-1.3 1.5l-0.1 0.1h-0.1C19.7 28 16.9 27 16.6 26c-0.1-0.2 0-0.3 0-0.5l0 0c0.7-0.6 1.4-1.3 2.1-2 -0.9 0.6-1.9 1.1-2.8 1.6h-0.1 -0.1c-0.3-0.1-3-1.1-3.3-2.1 -0.1-0.2 0-0.4 0.1-0.6l0 0h0.1c1.2-0.5 2.5-1.1 3.7-1.8 -1.6 0.4-3.3 0.8-5 1h-0.1l0 0c-0.1-0.1-2.8-1.2-3.3-2.6 -0.1-0.3-0.1-0.6 0-0.9L8 17.9h0.1c2-0.1 4.2-0.4 6.4-1 -2.7 0-5.5-0.3-8.2-0.9H6.2c-0.1-0.1-3.3-2.5-2.4-4.5l0.1-0.2L4 11.5c2.5 1.1 5.3 1.7 8.5 2C9 12.3 5.4 10.3 2.4 8 -0.6 4.8 0 0.5 0 0.4L0.1 0l0.3 0.3c4 3.7 11.1 5.5 17.9 7.2 1.5 0.4 3 0.7 4.4 1.1h0.1v0.1c0.8 4.9 3.7 12.8 8.2 14.6l0.1-0.5c0.4-0.9 0.7-1.7 0.8-2.6 0.1-0.5 0.1-1 0.2-1.5 0.1-0.6 0.1-1.2 0.3-1.6V17l0 0c0.6-0.5 1.6-0.8 2.9-0.8 1.5 0 2.9 0.4 3.6 1.1 0.8 0 1.9 0.1 2.4 0.7 0.3 0.3 0.5 0.8 0.5 1.4v0.3l-0.2-0.1c-0.2-0.1-0.4-0.1-0.6-0.1 -0.7 0-1.5 0.3-2.3 0.6 -0.1 0-0.2 0.1-0.3 0.1 0.2 0.8 0.4 1.6 0.8 2.4v0.1l0.1 0.5c4.7-1.7 7.6-9.7 8.4-14.7V8.4h0.1c1.4-0.4 2.9-0.8 4.4-1.1C59 5.8 66 4 70.1 0.3L70.4 0l0.1 0.4c0 0 0.7 4.3-2.3 7.6 -3 2.3-6.6 4.3-10.1 5.5 3.2-0.3 6-1 8.5-2l0.2-0.1 0.1 0.2c0.9 1.9-2.3 4.4-2.4 4.5h-0.1c-2.7 0.6-5.6 0.9-8.2 0.9 2.2 0.6 4.4 0.9 6.4 1h0.1l0.1 0.1c0.1 0.3 0.1 0.6 0 0.9 -0.5 1.3-3.2 2.5-3.3 2.6l0 0h-0.1c-1.7-0.2-3.4-0.5-5-1 1.2 0.7 2.5 1.3 3.7 1.8h0.1l0 0c0.1 0.2 0.2 0.4 0.1 0.6 -0.3 1-3 2-3.3 2.1h-0.1 -0.1c-1-0.5-1.9-1-2.9-1.6 0.7 0.7 1.4 1.4 2.1 2l0 0c0.1 0.1 0.1 0.3 0 0.5 -0.3 0.9-3.1 2-3.4 2.1h-0.1L50.3 28c-0.4-0.5-0.9-1-1.3-1.5l-0.2-0.3c0 0.1 0.1 0.1 0.1 0.2 0.1 0.2 0.2 0.5 0.4 0.7v0.1c0 0 0 0.1 0.1 0.1 0.2 0.3 0.3 0.6 0.5 0.9 0.1 0.2 0.1 0.3 0 0.5 -0.4 0.9-3 1.8-3.3 1.9l-0.2 0.1 -0.1-0.2c-0.3-0.6-0.6-1.2-0.8-1.8 0.2 1.1 0.4 2.2 0.4 2.2V31l-0.1 0.1c0 0-0.8 0.6-1.3 0.9 -1.3 0.9-2.4 1.7-3.4 2.6 0.6 1.7 1.6 4.1 2.5 6.1l0.1 0.1L43.6 41c-1.3 1.9-3.9 2.3-4 2.4h-0.2l-0.1-0.1c-0.5-1-0.8-2.1-1.2-3.1 0.1 1.1 0.2 2.3 0.4 3.3v0.2l-0.2 0.1C37.4 44.1 36.3 44.3 35.2 44.3zM32.1 43.4c0.4 0.2 1.5 0.6 3 0.6 1 0 2-0.2 3-0.6 -0.3-1.6-0.4-3.2-0.5-4.9l-0.1-1.7 0.5 1.7c0.4 1.5 0.9 3 1.6 4.5 0.6-0.1 2.5-0.6 3.5-2.1 -1-2-2-4.5-2.5-6.1v-0.2l0.1-0.1c1.1-0.9 2.2-1.7 3.5-2.7 0.3-0.2 0.9-0.6 1.2-0.8 -0.1-0.5-0.5-2.6-0.6-3.9l-0.2-1.7 0.6 1.6c0.4 1.1 0.8 2.2 1.3 3.3 1.1-0.4 2.7-1.1 2.9-1.6 0-0.1 0-0.1 0-0.2 -0.2-0.3-0.3-0.6-0.5-0.9 0 0-0.1-0.1-0.1-0.2v-0.1c-0.1-0.2-0.2-0.5-0.4-0.7 -0.3-0.6-0.6-1.2-0.8-1.8L47 23.2l1 1.4c0.4 0.5 0.8 1.1 1.2 1.6l0.2 0.3c0.3 0.4 0.6 0.7 0.9 1.1 1.1-0.4 2.9-1.3 3.1-1.8v-0.1c-1.1-1-2.2-2.1-3.3-3.2l-1.2-1.3 1.4 1c1.3 0.9 2.7 1.7 4.2 2.5 1.1-0.4 2.8-1.2 3-1.8 0-0.1 0-0.1 0-0.2C55.8 22 54 21.1 52.3 20l-1.4-1 1.7 0.6c2 0.7 4.3 1.2 6.6 1.5 0.8-0.3 2.7-1.4 3-2.3 0.1-0.2 0.1-0.3 0-0.4 -2.5-0.1-5.2-0.6-8-1.5l-1.7-0.5 1.8 0.1c3.1 0.2 6.5-0.1 9.8-0.8 0.3-0.2 2.8-2.2 2.3-3.7 -2.9 1.2-6.3 1.9-10.1 2.1l-1.8 0.1 1.7-0.5c4-1.1 8.2-3.3 11.6-6 2.3-2.5 2.3-5.7 2.3-6.8 -4.2 3.5-11.1 5.3-17.9 7C50.8 8.3 49.4 8.6 48 9c-0.9 5.2-4 13.5-8.9 15h-0.2l-0.2-0.9c-0.4-0.9-0.7-1.8-0.8-2.6v-0.2l0.2-0.1c0.2-0.1 0.3-0.1 0.5-0.2 0.9-0.3 1.7-0.7 2.5-0.7 0.2 0 0.3 0 0.4 0 0-0.4-0.1-0.6-0.3-0.9C40.6 18 39.6 18 38.8 18h-0.1l-0.1-0.1c-0.6-0.6-1.9-1-3.4-1 -1.1 0-2 0.2-2.6 0.6 -0.1 0.4-0.2 0.9-0.2 1.5 0 0.5-0.1 1-0.2 1.5 -0.2 0.9-0.4 1.8-0.8 2.7V24l-0.2-0.1c-4.8-1.7-7.8-9.8-8.7-14.9 -1.4-0.4-2.8-0.7-4.2-1.1 -6.8-1.7-13.7-3.4-17.9-7C0.3 2 0.3 5.2 2.7 7.7c3.4 2.6 7.6 4.8 11.6 5.9l1.7 0.5L14.2 14c-3.8-0.2-7.3-0.9-10.2-2.1 -0.5 1.5 2 3.5 2.3 3.7 3.3 0.7 6.7 1 9.8 0.8l1.8-0.1 -1.7 0.5c-2.8 0.9-5.5 1.4-8 1.5 0 0.1 0 0.3 0 0.4 0.3 0.9 2.3 2 3 2.3 2.3-0.3 4.5-0.8 6.6-1.5l1.7-0.6L18 20c-1.7 1.1-3.5 2-5.2 2.7 0 0.1 0 0.1 0 0.2 0.2 0.6 1.9 1.4 3 1.8 1.5-0.7 2.9-1.6 4.2-2.5l1.4-1 -1.2 1.3c-1 1.2-2.1 2.3-3.3 3.2v0.1c0.2 0.5 1.9 1.4 3.1 1.8 0.3-0.4 0.7-0.8 1-1.2l0.1-0.2c0.4-0.5 0.8-1.1 1.2-1.6l1-1.4 -0.7 1.6c-0.2 0.6-0.5 1.2-0.8 1.8 -0.1 0.3-0.2 0.5-0.4 0.7 0 0.1-0.1 0.2-0.1 0.2 -0.2 0.3-0.3 0.6-0.5 0.9 0 0 0 0.1 0 0.2 0.2 0.5 1.8 1.2 2.9 1.6 0.5-1.1 1-2.2 1.3-3.3l0.6-1.6L25.4 27c-0.1 1.3-0.5 3.3-0.6 3.9 0.2 0.2 0.8 0.6 1.2 0.8 1.2 0.9 2.3 1.7 3.4 2.5l0.1 0.1v0.2c-0.5 1.7-1.6 4.1-2.6 6.2 0.2 0.3 1.1 1.4 3.5 2 0.7-1.5 1.2-3 1.6-4.5l0.5-1.7 -0.1 1.7C32.6 40.1 32.4 41.8 32.1 43.4z"/><g id="Layer_2"/></svg>